<svg width="40" height="40" viewBox="0 0 40 40" fill="none" xmlns="http://www.w3.org/2000/svg">
<rect width="40" height="40" rx="10" fill="#0153FF"/>
<path d="M25.4766 13C25.4766 14.2132 25.2376 15.4145 24.7733 16.5353C24.3091 17.6562 23.6286 18.6746 22.7707 19.5325C21.9129 20.3903 20.8945 21.0708 19.7736 21.5351C18.6528 21.9993 17.4515 22.2383 16.2383 22.2383V13L7 13C7 15.4501 7.97332 17.7999 9.70583 19.5325C11.4383 21.265 13.7881 22.2383 16.2383 22.2383V30.0508C18.4774 30.0508 20.6946 29.6097 22.7633 28.7529C24.832 27.896 26.7117 26.64 28.295 25.0567C29.8783 23.4734 31.1343 21.5937 31.9911 19.5251C32.848 17.4564 33.2891 15.2391 33.2891 13H25.4766Z" fill="#EFF3F4"/>
</svg>
