<svg width="67" height="67" viewBox="0 0 67 67" fill="none" xmlns="http://www.w3.org/2000/svg">
<path d="M46.0986 34.4339C41.9479 21.9861 25.7456 10.6622 3.86679 19.4161C3.26179 19.6581 2.84138 20.2163 2.77577 20.8646C2.71015 21.5129 3.01019 22.144 3.55442 22.5024C4.71123 23.2642 6.68602 24.797 8.57226 26.8473C10.4675 28.9074 12.1753 31.3841 12.9563 34.0288C13.9731 37.4725 16.0015 43.2669 19.2992 47.8952C22.5882 52.5112 27.51 56.4201 34.1973 54.838C37.8036 53.9848 40.9621 51.8242 43.2184 48.9687C45.2695 52.7047 46.94 57.0531 47.9711 62.0819C48.1652 63.0287 49.0901 63.6388 50.0369 63.4447C50.9837 63.2506 51.5939 62.3257 51.3997 61.3789C50.1343 55.207 47.9687 49.9768 45.311 45.5841C46.9176 42.149 47.3538 38.1981 46.0986 34.4339ZM20.4624 26.1205C19.5225 25.8955 18.578 26.475 18.353 27.4149C18.1279 28.3548 18.7074 29.2992 19.6473 29.5243C24.8421 30.7682 34.42 35.5442 41.2445 45.7219C39.4708 48.4852 36.6864 50.6526 33.3915 51.4321C28.7701 52.5254 25.1129 50.0231 22.1497 45.8642C19.1951 41.7176 17.298 36.3734 16.313 33.0377C15.3229 29.6847 13.2366 26.7479 11.1481 24.4777C10.1339 23.3753 9.09607 22.4051 8.13943 21.5948C26.6238 15.6796 39.462 25.5955 42.7783 35.541C43.4817 37.6506 43.4719 39.8843 42.9038 41.997C35.6431 32.2088 26.0448 27.4573 20.4624 26.1205Z" fill="white"/>
<path d="M43.5002 10.0802C43.2521 10.8257 43.1545 11.3738 43.1545 11.6686C43.1545 12.9888 44.2248 14.059 45.545 14.059C46.8652 14.059 47.9354 12.9888 47.9354 11.6686C47.9354 11.3738 47.8378 10.8257 47.5898 10.0802C47.3522 9.36633 47.0153 8.58607 46.6339 7.86725C46.2616 7.16556 45.8779 6.58093 45.545 6.18826C45.2121 6.58093 44.8283 7.16556 44.456 7.86725C44.0746 8.58607 43.7378 9.36633 43.5002 10.0802ZM45.94 5.80388C45.94 5.80412 45.9363 5.8065 45.9292 5.81034C45.9365 5.80557 45.94 5.80365 45.94 5.80388ZM45.1608 5.81034C45.1537 5.8065 45.15 5.80412 45.15 5.80388C45.15 5.80365 45.1535 5.80557 45.1608 5.81034ZM43.9471 2.92559C44.3098 2.67758 44.8626 2.3905 45.545 2.3905C46.2274 2.3905 46.7802 2.67758 47.1429 2.92559C47.524 3.18615 47.8604 3.51676 48.1472 3.84633C48.7232 4.50822 49.2653 5.35915 49.7257 6.22681C50.1912 7.10418 50.6072 8.06302 50.9107 8.97504C51.2037 9.85545 51.4354 10.8201 51.4354 11.6686C51.4354 14.9218 48.7982 17.559 45.545 17.559C42.2918 17.559 39.6545 14.9218 39.6545 11.6686C39.6545 10.8201 39.8863 9.85545 40.1793 8.97504C40.4828 8.06302 40.8988 7.10418 41.3643 6.22681C41.8246 5.35915 42.3667 4.50822 42.9428 3.84633C43.2296 3.51676 43.566 3.18615 43.9471 2.92559Z" fill="white"/>
<path d="M55.4913 25.4378C55.2705 26.0499 55.1995 26.4602 55.1995 26.6397C55.1995 27.461 55.9657 28.3623 57.2135 28.3623C58.4613 28.3623 59.2276 27.461 59.2276 26.6397C59.2276 26.4602 59.1565 26.0499 58.9357 25.4378C58.7275 24.8606 58.4301 24.2242 58.0918 23.636C57.7896 23.1105 57.4823 22.6714 57.2135 22.3623C56.9447 22.6714 56.6374 23.1105 56.3352 23.636C55.9969 24.2242 55.6995 24.8606 55.4913 25.4378ZM57.6012 21.9935C57.6011 21.9936 57.5984 21.9953 57.5931 21.9981C57.5985 21.9948 57.6012 21.9933 57.6012 21.9935ZM56.8339 21.9981C56.8286 21.9953 56.8259 21.9936 56.8259 21.9935C56.8258 21.9933 56.8285 21.9948 56.8339 21.9981ZM55.7251 19.0383C56.0718 18.8196 56.5866 18.5758 57.2135 18.5758C57.8404 18.5758 58.3552 18.8196 58.7019 19.0383C59.0633 19.2663 59.3819 19.5554 59.6521 19.8418C60.1936 20.4159 60.6992 21.1493 61.1258 21.8911C61.5574 22.6416 61.9444 23.4638 62.2281 24.2502C62.4992 25.0018 62.7276 25.8603 62.7276 26.6397C62.7276 29.6542 60.1234 31.8623 57.2135 31.8623C54.3036 31.8623 51.6995 29.6542 51.6995 26.6397C51.6995 25.8603 51.9278 25.0018 52.1989 24.2502C52.4826 23.4638 52.8696 22.6416 53.3012 21.8911C53.7278 21.1493 54.2334 20.4159 54.775 19.8418C55.0451 19.5554 55.3637 19.2663 55.7251 19.0383Z" fill="white"/>
</svg>
