<svg width="68" height="67" viewBox="0 0 68 67" fill="none" xmlns="http://www.w3.org/2000/svg">
<path d="M5.00951 16.8697L5.01202 16.8679L5.02571 16.8585L5.08679 16.8168C5.14218 16.7792 5.22639 16.7224 5.33688 16.6493C5.55797 16.503 5.8837 16.2914 6.29375 16.0364C7.11545 15.5254 8.26755 14.8448 9.58882 14.1662C12.3118 12.7676 15.4544 11.5365 17.8755 11.5365C25.0857 11.5365 29.5099 13.8082 33.7004 16.1997C34.0014 16.3714 34.3025 16.5448 34.6045 16.7188C38.524 18.9759 42.5996 21.323 48.5236 21.323C51.7555 21.323 55.7325 20.1993 58.7614 19.1577C60.306 18.6265 61.6611 18.0962 62.6305 17.6986C63.1157 17.4996 63.5058 17.3332 63.7763 17.2158C63.9116 17.157 64.0171 17.1105 64.0897 17.0782L64.1737 17.0407L64.1965 17.0305L64.205 17.0266C64.205 17.0266 64.2061 17.0261 63.4828 15.4326L64.2061 17.0261C65.0862 16.6266 65.4758 15.5893 65.0763 14.7092C64.6769 13.8292 63.6398 13.4396 62.7597 13.8389L62.7559 13.8407L62.7393 13.8482L62.6682 13.8799C62.6044 13.9083 62.5082 13.9507 62.3826 14.0052C62.1315 14.1142 61.7634 14.2713 61.3023 14.4604C60.3789 14.8391 59.0888 15.3439 57.6233 15.8479C54.6321 16.8765 51.1295 17.823 48.5236 17.823C43.5628 17.823 40.2427 15.9178 36.2513 13.6273C35.9825 13.4731 35.7107 13.3171 35.4352 13.1599C31.0515 10.6581 25.9894 8.0365 17.8755 8.0365C14.5528 8.0365 10.7631 9.62841 7.98974 11.0529C6.56283 11.7857 5.32574 12.5167 4.44529 13.0643C4.00427 13.3386 3.65069 13.5682 3.40523 13.7306C3.28245 13.8119 3.18659 13.8764 3.12021 13.9215C3.08701 13.9441 3.06118 13.9618 3.04303 13.9742L3.02159 13.989L3.01527 13.9934L3.01322 13.9948C3.01322 13.9948 3.01192 13.9957 3.97627 15.3828L3.01192 13.9957C2.21837 14.5474 2.02233 15.638 2.57405 16.4315C3.12568 17.225 4.21599 17.4211 5.00951 16.8697Z" fill="white"/>
<path d="M5.00951 35.6899L5.01202 35.6881L5.02571 35.6787L5.08679 35.637C5.14218 35.5994 5.22639 35.5426 5.33688 35.4695C5.55797 35.3232 5.8837 35.1116 6.29375 34.8566C7.11545 34.3455 8.26755 33.665 9.58882 32.9864C12.3118 31.5878 15.4544 30.3567 17.8755 30.3567C25.0857 30.3567 29.5099 32.6284 33.7004 35.0199C34.0014 35.1916 34.3025 35.365 34.6045 35.539C38.524 37.7961 42.5996 40.1432 48.5236 40.1432C51.7555 40.1432 55.7325 39.0195 58.7614 37.9779C60.306 37.4467 61.6611 36.9164 62.6305 36.5188C63.1157 36.3198 63.5058 36.1534 63.7763 36.036C63.9116 35.9772 64.0171 35.9307 64.0897 35.8984L64.1737 35.8609L64.1965 35.8506L64.203 35.8477L64.205 35.8468C64.205 35.8468 64.2061 35.8463 63.4828 34.2528L64.2061 35.8463C65.0862 35.4468 65.4758 34.4095 65.0763 33.5294C64.6769 32.6494 63.6398 32.2598 62.7597 32.6591M62.7597 32.6591L62.7559 32.6609L62.7393 32.6683L62.6682 32.7001C62.6044 32.7285 62.5082 32.7709 62.3826 32.8254C62.1315 32.9344 61.7634 33.0915 61.3023 33.2806C60.3789 33.6593 59.0888 34.1641 57.6233 34.6681C54.6321 35.6967 51.1295 36.6432 48.5236 36.6432C43.5628 36.6432 40.2427 34.738 36.2513 32.4475C35.9825 32.2933 35.7107 32.1373 35.4352 31.98C31.0515 29.4783 25.9894 26.8567 17.8755 26.8567C14.5528 26.8567 10.7631 28.4486 7.98974 29.873C6.56283 30.6059 5.32574 31.3369 4.44529 31.8845C4.00427 32.1588 3.65069 32.3884 3.40523 32.5508C3.28245 32.6321 3.18659 32.6966 3.12021 32.7417C3.08701 32.7643 3.06118 32.782 3.04303 32.7944L3.02159 32.8092L3.01527 32.8136L3.01322 32.815C3.01322 32.815 3.01192 32.8159 3.97627 34.2029L3.01192 32.8159C2.21837 33.3676 2.02233 34.4582 2.57405 35.2517C3.12568 36.0452 4.21599 36.2413 5.00951 35.6899" fill="white"/>
<path d="M5.00951 54.5102L5.01202 54.5084L5.02571 54.499L5.08679 54.4573C5.14218 54.4197 5.22639 54.3629 5.33688 54.2898C5.55797 54.1435 5.8837 53.9319 6.29375 53.6769C7.11545 53.1659 8.26755 52.4853 9.58882 51.8067C12.3118 50.4081 15.4544 49.177 17.8755 49.177C25.0857 49.177 29.5099 51.4487 33.7004 53.8402C34.0014 54.0119 34.3025 54.1854 34.6045 54.3593C38.524 56.6164 42.5996 58.9635 48.5236 58.9635C51.7555 58.9635 55.7325 57.8398 58.7614 56.7982C60.306 56.267 61.6611 55.7367 62.6305 55.3391C63.1157 55.1401 63.5058 54.9737 63.7763 54.8563C63.9116 54.7975 64.0171 54.751 64.0897 54.7187L64.1737 54.6812L64.1965 54.671L64.203 54.668L64.205 54.6671C64.205 54.6671 64.2061 54.6666 63.4828 53.0731L64.2061 54.6666C65.0862 54.2671 65.4758 53.2298 65.0763 52.3497C64.6769 51.4698 63.6398 51.0801 62.7597 51.4794M62.7597 51.4794L62.7559 51.4812L62.7393 51.4887L62.6682 51.5204C62.6044 51.5488 62.5082 51.5912 62.3826 51.6457C62.1315 51.7547 61.7634 51.9118 61.3023 52.1009C60.3789 52.4797 59.0888 52.9844 57.6233 53.4884C54.6321 54.517 51.1295 55.4635 48.5236 55.4635C43.5628 55.4635 40.2427 53.5583 36.2513 51.2678C35.9825 51.1136 35.7107 50.9576 35.4352 50.8004C31.0515 48.2986 25.9894 45.677 17.8755 45.677C14.5528 45.677 10.7631 47.2689 7.98974 48.6934C6.56283 49.4262 5.32574 50.1572 4.44529 50.7048C4.00427 50.9791 3.65069 51.2087 3.40523 51.3711C3.28245 51.4524 3.18659 51.5169 3.12021 51.562C3.08701 51.5846 3.06118 51.6023 3.04303 51.6147L3.02159 51.6295L3.01527 51.6339L3.01322 51.6353C3.01322 51.6353 3.01192 51.6362 3.97627 53.0233L3.01192 51.6362C2.21837 52.1879 2.02233 53.2785 2.57405 54.0721C3.12568 54.8655 4.21599 55.0616 5.00951 54.5102" fill="white"/>
</svg>
