<svg width="67" height="67" viewBox="0 0 67 67" fill="none" xmlns="http://www.w3.org/2000/svg">
<path fill-rule="evenodd" clip-rule="evenodd" d="M47.3283 44.7156C50.4814 44.2388 54.8776 44.082 57.7261 44.219C58.6914 44.2654 59.4364 45.0856 59.39 46.051C59.3436 47.0164 58.5233 47.7613 57.5579 47.7149C55.0464 47.5941 51.1782 47.7236 48.3176 48.1097C49.2999 48.4167 50.3744 48.697 51.4956 48.9597C52.7988 49.265 54.0517 49.5226 55.2633 49.7718C56.1233 49.9487 56.9624 50.1213 57.7841 50.3036C58.7271 50.5128 59.6175 50.7299 60.3703 50.9659C61.0746 51.1866 61.8514 51.48 62.4291 51.9146C62.7261 52.1381 63.1173 52.5065 63.3318 53.0656C63.5756 53.7014 63.5032 54.351 63.2337 54.891C62.9961 55.367 62.6323 55.7127 62.318 55.9562C61.9887 56.2113 61.6003 56.4407 61.1804 56.6527C52.1185 61.2284 38.773 63.196 20.1389 61.1941C19.1779 61.0908 18.4826 60.2281 18.5858 59.2671C18.6891 58.3062 19.5518 57.6108 20.5128 57.7141C37.9915 59.5919 50.2553 57.8491 58.4839 54.0675C58.0499 53.9544 57.5623 53.8395 57.0259 53.7205C56.3299 53.5661 55.5255 53.4001 54.6715 53.2239C53.3919 52.9598 52.001 52.6728 50.6973 52.3674C48.4732 51.8464 46.1677 51.2019 44.3211 50.3243C43.9712 50.1581 43.6332 49.9677 43.3398 49.743C43.0613 49.5297 42.7131 49.2027 42.4936 48.7289C42.2413 48.1845 42.2126 47.5527 42.4674 46.9658C42.6888 46.4556 43.0591 46.1288 43.3283 45.9367C43.857 45.5594 44.5378 45.3231 45.1381 45.1583C45.7833 44.9812 46.5339 44.8357 47.3283 44.7156ZM60.2232 53.148C60.2233 53.148 60.2214 53.1501 60.2169 53.1542C60.2208 53.1501 60.223 53.148 60.2232 53.148ZM45.4578 46.9561C45.458 46.956 45.461 46.9583 45.4663 46.9631C45.4603 46.9585 45.4577 46.9561 45.4578 46.9561Z" fill="white"/>
<path d="M13.5334 18.0338C10.9323 23.8065 9.27808 31.9043 9.27808 40.9422C9.27808 43.6329 9.42477 46.2449 9.70067 48.7403C9.80689 49.7009 9.11424 50.5658 8.15359 50.672C7.19295 50.7782 6.32809 50.0855 6.22187 49.1249C5.93163 46.4998 5.77808 43.7594 5.77808 40.9422C5.77808 31.526 7.49431 22.9167 10.3424 16.5959C13.1169 10.4386 17.3102 5.77808 22.5843 5.77808C27.8583 5.77808 32.0516 10.4386 34.8261 16.5959C37.6742 22.9167 39.3904 31.526 39.3904 40.9422C39.3904 41.9087 38.6069 42.6922 37.6404 42.6922C36.6739 42.6922 35.8904 41.9087 35.8904 40.9422C35.8904 31.9043 34.2362 23.8065 31.6351 18.0338C28.9603 12.0976 25.6255 9.27808 22.5843 9.27808C19.543 9.27808 16.2082 12.0976 13.5334 18.0338Z" fill="white"/>
<path d="M41.993 25.8601C40.4203 28.3896 39.3904 31.9936 39.3904 36.0664C39.3904 37.0329 38.6069 37.8164 37.6404 37.8164C36.6739 37.8164 35.8904 37.0329 35.8904 36.0664C35.8904 31.4459 37.0513 27.1796 39.0206 24.0121C40.9739 20.8705 43.8989 18.5758 47.4269 18.5758C50.9549 18.5758 53.8799 20.8705 55.8332 24.0121C57.8025 27.1796 58.9634 31.4459 58.9634 36.0664C58.9634 37.1915 58.8947 38.2928 58.763 39.3602C58.6447 40.3195 57.7712 41.0012 56.812 40.8829C55.8528 40.7646 55.171 39.8911 55.2893 38.9318C55.4033 38.0074 55.4634 37.0492 55.4634 36.0664C55.4634 31.9936 54.4335 28.3896 52.8608 25.8601C51.2721 23.3048 49.3038 22.0758 47.4269 22.0758C45.55 22.0758 43.5817 23.3048 41.993 25.8601Z" fill="white"/>
</svg>
