<svg width="67" height="67" viewBox="0 0 67 67" fill="none" xmlns="http://www.w3.org/2000/svg">
<path d="M32.6662 5.51404C24.6998 5.51404 18.0491 11.099 16.444 18.5378C16.2782 19.3058 15.6209 19.8692 14.8366 19.9156C9.62964 20.2233 5.51392 24.5231 5.51392 29.7657C5.51392 35.2078 9.94847 39.6335 15.436 39.6335C16.4025 39.6335 17.186 40.417 17.186 41.3835C17.186 42.35 16.4025 43.1335 15.436 43.1335C8.03088 43.1335 2.01392 37.1562 2.01392 29.7657C2.01392 23.0895 6.92357 17.5671 13.3319 16.5615C15.7196 8.16134 23.4739 2.01404 32.6662 2.01404C40.536 2.01404 47.3499 6.5201 50.6462 13.0832C50.7664 13.0801 50.887 13.0786 51.008 13.0786C58.72 13.0786 64.9858 19.3035 64.9858 26.9996C64.9858 34.6956 58.72 40.9206 51.008 40.9206C50.0415 40.9206 49.258 40.1371 49.258 39.1706C49.258 38.2041 50.0415 37.4206 51.008 37.4206C56.8024 37.4206 61.4858 32.7472 61.4858 26.9996C61.4858 21.2519 56.8024 16.5786 51.008 16.5786C50.5881 16.5786 50.1747 16.6031 49.769 16.6505C48.9976 16.7407 48.259 16.3117 47.9552 15.5969C45.4366 9.672 39.54 5.51404 32.6662 5.51404ZM29.1618 32.9694C29.9895 33.4683 30.2561 34.5439 29.7571 35.3716L25.5885 42.2869C25.0896 43.1147 24.014 43.3812 23.1863 42.8822C22.3586 42.3833 22.092 41.3078 22.591 40.48L26.7596 33.5647C27.2586 32.7369 28.3341 32.4704 29.1618 32.9694ZM40.6516 37.132C39.955 37.132 39.3903 37.6967 39.3903 38.3933C39.3903 39.0898 39.955 39.6545 40.6516 39.6545C41.3481 39.6545 41.9128 39.0898 41.9128 38.3933C41.9128 37.6967 41.3481 37.132 40.6516 37.132ZM35.8903 38.3933C35.8903 35.7637 38.022 33.632 40.6516 33.632C43.2811 33.632 45.4128 35.7637 45.4128 38.3933C45.4128 41.0228 43.2811 43.1545 40.6516 43.1545C38.022 43.1545 35.8903 41.0228 35.8903 38.3933ZM33.6513 47.9333C34.4643 48.456 34.6995 49.5388 34.1768 50.3517L29.7303 57.2671C29.2076 58.08 28.1248 58.3153 27.3119 57.7926C26.4989 57.2699 26.2637 56.1871 26.7864 55.3741L31.2329 48.4588C31.7556 47.6459 32.8384 47.4106 33.6513 47.9333ZM48.3856 48.1998C49.2041 48.7138 49.451 49.794 48.937 50.6125L44.7684 57.2512C44.2545 58.0697 43.1743 58.3166 42.3558 57.8027C41.5373 57.2887 41.2904 56.2085 41.8043 55.39L45.9729 48.7513C46.4869 47.9328 47.5671 47.6859 48.3856 48.1998ZM16.5617 51.4354C15.8651 51.4354 15.3004 52.0001 15.3004 52.6966C15.3004 53.3932 15.8651 53.9579 16.5617 53.9579C17.2582 53.9579 17.8229 53.3932 17.8229 52.6966C17.8229 52.0001 17.2582 51.4354 16.5617 51.4354ZM11.8004 52.6966C11.8004 50.0671 13.9321 47.9354 16.5617 47.9354C19.1912 47.9354 21.3229 50.0671 21.3229 52.6966C21.3229 55.3262 19.1912 57.4579 16.5617 57.4579C13.9321 57.4579 11.8004 55.3262 11.8004 52.6966Z" fill="white"/>
</svg>
