<svg width="68" height="67" viewBox="0 0 68 67" fill="none" xmlns="http://www.w3.org/2000/svg">
<path d="M32.9132 5.51404C24.9469 5.51404 18.2961 11.099 16.691 18.5378C16.5253 19.3058 15.868 19.8692 15.0837 19.9156C9.87671 20.2233 5.76099 24.5231 5.76099 29.7657C5.76099 35.2078 10.1955 39.6335 15.683 39.6335C16.6495 39.6335 17.433 40.417 17.433 41.3835C17.433 42.35 16.6495 43.1335 15.683 43.1335C8.27795 43.1335 2.26099 37.1562 2.26099 29.7657C2.26099 23.0895 7.17064 17.5671 13.579 16.5615C15.9667 8.16134 23.721 2.01404 32.9132 2.01404C40.7831 2.01404 47.597 6.5201 50.8933 13.0832C51.0135 13.0801 51.1341 13.0786 51.255 13.0786C58.9671 13.0786 65.2329 19.3035 65.2329 26.9996C65.2329 34.6956 58.9671 40.9206 51.255 40.9206C50.2885 40.9206 49.505 40.1371 49.505 39.1706C49.505 38.2041 50.2885 37.4206 51.255 37.4206C57.0495 37.4206 61.7329 32.7472 61.7329 26.9996C61.7329 21.2519 57.0495 16.5786 51.255 16.5786C50.8352 16.5786 50.4218 16.6031 50.0161 16.6505C49.2447 16.7407 48.5061 16.3117 48.2023 15.5969C45.6837 9.672 39.7871 5.51404 32.9132 5.51404ZM38.0399 21.6625C38.8487 22.1916 39.0754 23.2762 38.5463 24.085L32.5365 33.2714H39.3051C39.9341 33.2714 40.5147 33.6089 40.8259 34.1556C41.1371 34.7022 41.131 35.3738 40.8099 35.9147L33.5843 48.0857C33.0909 48.9168 32.0172 49.1905 31.1861 48.6972C30.3551 48.2038 30.0813 47.1301 30.5747 46.299L36.231 36.7714H29.3004C28.6578 36.7714 28.0668 36.4191 27.7611 35.8538C27.4554 35.2885 27.4842 34.6011 27.836 34.0633L35.6174 22.1689C36.1465 21.3601 37.2311 21.1334 38.0399 21.6625ZM47.1833 42.1143C48.0018 42.6283 48.2487 43.7085 47.7348 44.527L43.5662 51.1657C43.0522 51.9842 41.972 52.2311 41.1535 51.7172C40.335 51.2032 40.0881 50.123 40.6021 49.3045L44.7707 42.6658C45.2846 41.8473 46.3648 41.6004 47.1833 42.1143ZM23.5342 43.4807C24.3619 43.9797 24.6284 45.0552 24.1295 45.8829L19.9609 52.7982C19.4619 53.626 18.3864 53.8925 17.5586 53.3935C16.7309 52.8946 16.4644 51.8191 16.9633 50.9913L21.1319 44.076C21.6309 43.2483 22.7064 42.9817 23.5342 43.4807ZM34.6934 54.8486C35.5064 55.3714 35.7416 56.4541 35.2189 57.2671L30.7724 64.1824C30.2497 64.9954 29.1669 65.2306 28.354 64.7079C27.541 64.1852 27.3058 63.1024 27.8285 62.2895L32.275 55.3741C32.7977 54.5612 33.8805 54.3259 34.6934 54.8486Z" fill="white"/>
</svg>
