<svg width="120" height="120" viewBox="0 0 120 120" fill="none" xmlns="http://www.w3.org/2000/svg">
<g clip-path="url(#clip0)">
<path d="M0 60C0 26.8629 26.8629 0 60 0V0C93.1371 0 120 26.8629 120 60V60C120 93.1371 93.1371 120 60 120V120C26.8629 120 0 93.1371 0 60V60Z" fill="white"/>
<rect x="48.3428" y="56.4286" width="23.3876" height="43.9308" rx="4.72351" fill="white" stroke="#323232" stroke-width="1.37143" stroke-linecap="round"/>
<path d="M48.993 84.7603V70.7182H72.5143C70.7427 77.919 60.1795 85.1491 48.993 84.7603Z" fill="#7E7E7E" fill-opacity="0.45"/>
<path d="M46.2857 55.1591C46.2857 59.1667 42.6685 62.5305 38.0571 62.5305C33.4458 62.5305 29.8286 59.1667 29.8286 55.1591C29.8286 51.1515 33.4458 47.7877 38.0571 47.7877C42.6685 47.7877 46.2857 51.1515 46.2857 55.1591Z" fill="white" stroke="#323232" stroke-width="1.37143"/>
<path d="M74.7429 55.1591C74.7429 59.1667 78.36 62.5305 82.9714 62.5305C87.5828 62.5305 91.2 59.1667 91.2 55.1591C91.2 51.1515 87.5828 47.7877 82.9714 47.7877C78.36 47.7877 74.7429 51.1515 74.7429 55.1591Z" fill="white" stroke="#323232" stroke-width="1.37143"/>
<g clip-path="url(#clip1)">
<path d="M83.3143 53.7299C83.3143 60.7037 81.282 66.0177 77.5038 69.5933C73.7198 73.1746 68.0856 75.1059 60.696 75.1059C53.3063 75.1059 47.5774 73.1744 43.7008 69.588C39.8323 66.0092 37.7143 60.6953 37.7143 53.7299C37.7143 46.7496 39.8437 39.4652 43.7929 33.9433C47.7337 28.4331 53.4591 24.7059 60.696 24.7059C67.9305 24.7059 73.5634 28.4304 77.4132 33.9373C81.2724 39.4576 83.3143 46.7434 83.3143 53.7299Z" fill="white" stroke="#323232" stroke-width="1.37143" stroke-linecap="round"/>
<path d="M60.6316 53.163C59.9914 56.0388 59.6571 57.5415 59.6571 60.5335C60.5145 61.0666 61.3343 61.1998 62.7428 61.1847" stroke="#323232" stroke-width="1.37143" stroke-linecap="round" stroke-linejoin="round"/>
<path d="M48.6061 55.5876C49.3129 55.5876 49.9397 55.2052 50.3839 54.6129C50.8281 54.0206 51.0978 53.2102 51.0978 52.3224C51.0978 51.4345 50.8281 50.6242 50.3839 50.0319C49.9397 49.4395 49.3129 49.0571 48.6061 49.0571C47.8993 49.0571 47.2724 49.4395 46.8282 50.0319C46.384 50.6242 46.1143 51.4345 46.1143 52.3224C46.1143 53.2102 46.384 54.0206 46.8282 54.6129C47.2724 55.2052 47.8993 55.5876 48.6061 55.5876Z" fill="#323232" stroke="#323232" stroke-width="0.342857" stroke-linecap="round"/>
<circle cx="49.5827" cy="51.563" r="0.857143" fill="white" stroke="#323232" stroke-width="0.342857"/>
<path d="M73.2918 55.5876C73.9986 55.5876 74.6254 55.2052 75.0697 54.6129C75.5139 54.0206 75.7836 53.2102 75.7836 52.3224C75.7836 51.4345 75.5139 50.6242 75.0697 50.0319C74.6254 49.4395 73.9986 49.0571 73.2918 49.0571C72.585 49.0571 71.9582 49.4395 71.5139 50.0319C71.0697 50.6242 70.8 51.4345 70.8 52.3224C70.8 53.2102 71.0697 54.0206 71.5139 54.6129C71.9582 55.2052 72.585 55.5876 73.2918 55.5876Z" fill="#323232" stroke="#323232" stroke-width="0.342857" stroke-linecap="round"/>
<circle cx="74.2684" cy="51.563" r="0.685714" fill="white"/>
<path d="M57.6 65.163C58.6286 66.4201 61.3029 68.1801 63.7714 65.163" stroke="#323232" stroke-width="1.37143" stroke-linecap="round" stroke-linejoin="round"/>
<g filter="url(#filter0_f)">
<ellipse cx="47.8286" cy="64.1429" rx="3.25714" ry="1.88571" fill="#FC9D80"/>
</g>
<g filter="url(#filter1_f)">
<ellipse cx="74.9143" cy="64.1429" rx="3.25714" ry="1.88571" fill="#FC9D80"/>
</g>
</g>
<path d="M33.0857 34.0734C32.5233 26.5054 34.6286 22.5876 40.9714 21.0448C40.9714 21.0448 59.8286 2.35911 76.4572 14.702C93.0857 27.0448 82.8 48.0286 82.8 48.0286C78.8572 42.7143 77.1311 41.6491 77.4857 34.9305C63.1396 39.2414 57.1598 37.9645 49.2 29.1019C48.1649 34.8241 46.9714 36.8857 42.8572 39.2857C43.5933 43.5073 39.2572 47.1714 38.0572 48.3714C34.2296 44.1742 33.5051 41.1035 33.0857 34.0734Z" fill="#323232"/>
<path d="M48.5611 86.1083C54.0964 95.6996 67.4996 94.9486 71.6793 86.1959C71.793 85.9577 72.0495 85.8875 72.2137 85.962C81.4567 90.151 87.526 94.6067 91.6708 100.424C95.8204 106.248 98.0922 113.508 99.6042 123.408C99.6357 123.614 99.4738 123.8 99.27 123.8H20.3901C20.1868 123.8 20.0247 123.614 20.0572 123.407C21.6904 113.012 24.3764 105.666 28.7763 99.9205C33.1766 94.1741 39.3418 89.961 48.0618 85.9253C48.2186 85.8527 48.4468 85.9103 48.5611 86.1083Z" fill="white" stroke="#323232" stroke-width="1.37143" stroke-linecap="round" stroke-linejoin="round"/>
</g>
<path d="M60 118.63C27.6195 118.63 1.37 92.3805 1.37 60H-1.37C-1.37 93.8937 26.1063 121.37 60 121.37V118.63ZM118.63 60C118.63 92.3805 92.3805 118.63 60 118.63V121.37C93.8937 121.37 121.37 93.8937 121.37 60H118.63ZM60 1.37C92.3805 1.37 118.63 27.6195 118.63 60H121.37C121.37 26.1063 93.8937 -1.37 60 -1.37V1.37ZM60 -1.37C26.1063 -1.37 -1.37 26.1063 -1.37 60H1.37C1.37 27.6195 27.6195 1.37 60 1.37V-1.37Z" fill="#323232"/>
<defs>
<filter id="filter0_f" x="40.4572" y="58.1429" width="14.7429" height="12" filterUnits="userSpaceOnUse" color-interpolation-filters="sRGB">
<feFlood flood-opacity="0" result="BackgroundImageFix"/>
<feBlend mode="normal" in="SourceGraphic" in2="BackgroundImageFix" result="shape"/>
<feGaussianBlur stdDeviation="2.05714" result="effect1_foregroundBlur"/>
</filter>
<filter id="filter1_f" x="67.5428" y="58.1429" width="14.7429" height="12" filterUnits="userSpaceOnUse" color-interpolation-filters="sRGB">
<feFlood flood-opacity="0" result="BackgroundImageFix"/>
<feBlend mode="normal" in="SourceGraphic" in2="BackgroundImageFix" result="shape"/>
<feGaussianBlur stdDeviation="2.05714" result="effect1_foregroundBlur"/>
</filter>
<clipPath id="clip0">
<path d="M0 60C0 26.8629 26.8629 0 60 0V0C93.1371 0 120 26.8629 120 60V60C120 93.1371 93.1371 120 60 120V120C26.8629 120 0 93.1371 0 60V60Z" fill="white"/>
</clipPath>
<clipPath id="clip1">
<rect width="46.9714" height="65.1429" fill="white" transform="translate(37.0286 10.7591)"/>
</clipPath>
</defs>
</svg>
