<svg width="18" height="18" viewBox="0 0 18 18" fill="none" xmlns="http://www.w3.org/2000/svg">
<path d="M1.49998 4.5C1.49998 4.086 1.84123 3.75 2.24398 3.75H15.756C16.167 3.75 16.5 4.08375 16.5 4.5V15C16.5 15.414 16.1587 15.75 15.756 15.75H2.24398C2.14583 15.7498 2.04868 15.7302 1.95811 15.6924C1.86754 15.6546 1.78533 15.5992 1.71621 15.5295C1.64708 15.4598 1.5924 15.3772 1.55529 15.2863C1.51819 15.1955 1.49939 15.0982 1.49998 15V4.5ZM10.5 13.5C11.4945 13.5 12.4484 13.1049 13.1516 12.4017C13.8549 11.6984 14.25 10.7446 14.25 9.75C14.25 8.75544 13.8549 7.80161 13.1516 7.09835C12.4484 6.39509 11.4945 6 10.5 6C9.50542 6 8.55159 6.39509 7.84833 7.09835C7.14507 7.80161 6.74998 8.75544 6.74998 9.75C6.74998 10.7446 7.14507 11.6984 7.84833 12.4017C8.55159 13.1049 9.50542 13.5 10.5 13.5ZM2.99998 5.25V6.75H5.24998V5.25H2.99998ZM2.99998 1.5H7.49998V3H2.99998V1.5Z" fill="#00BF86"/>
</svg>
