<svg width="18" height="18" viewBox="0 0 18 18" fill="none" xmlns="http://www.w3.org/2000/svg">
<path d="M2.25 2.25H15.75C15.9489 2.25 16.1397 2.32902 16.2803 2.46967C16.421 2.61032 16.5 2.80109 16.5 3V15C16.5 15.1989 16.421 15.3897 16.2803 15.5303C16.1397 15.671 15.9489 15.75 15.75 15.75H2.25C2.05109 15.75 1.86032 15.671 1.71967 15.5303C1.57902 15.3897 1.5 15.1989 1.5 15V3C1.5 2.80109 1.57902 2.61032 1.71967 2.46967C1.86032 2.32902 2.05109 2.25 2.25 2.25ZM12.348 11.652L15 9L12.348 6.348L11.2875 7.41L12.879 9L11.2875 10.5907L12.348 11.652ZM5.121 9L6.7125 7.40925L5.652 6.348L3 9L5.652 11.652L6.7125 10.59L5.121 9ZM8.433 12.75L11.163 5.25H9.567L6.837 12.75H8.433Z" fill="#1D9F42"/>
</svg>
