<svg width="18" height="18" viewBox="0 0 18 18" fill="none" xmlns="http://www.w3.org/2000/svg">
<path d="M12.2475 10.125C12.8721 9.63414 13.3769 9.00774 13.7238 8.29312C14.0707 7.5785 14.2506 6.79437 14.25 6H15.75C15.7508 7.05782 15.5025 8.10097 15.0254 9.04507C14.5483 9.98917 13.8556 10.8077 13.0035 11.4345L14.8995 14.718C15.0984 15.0625 15.1523 15.4719 15.0493 15.8562C14.9464 16.2405 14.695 16.5681 14.3505 16.767L11.7052 12.186C10.8522 12.5592 9.93106 12.7512 8.99999 12.75C8.06893 12.7512 7.14775 12.5592 6.29474 12.186L3.64949 16.767C3.30499 16.5681 3.0536 16.2405 2.95065 15.8562C2.84769 15.4719 2.90159 15.0625 3.10049 14.718L6.89774 8.1405C6.51897 7.76808 6.24581 7.30181 6.10617 6.7893C5.96653 6.27678 5.9654 5.73639 6.1029 5.2233C6.2404 4.71021 6.5116 4.2428 6.88882 3.8688C7.26603 3.4948 7.73575 3.2276 8.24999 3.0945V1.5H9.74999V3.0945C10.2642 3.2276 10.734 3.4948 11.1112 3.8688C11.4884 4.2428 11.7596 4.71021 11.8971 5.2233C12.0346 5.73639 12.0335 6.27678 11.8938 6.7893C11.7542 7.30181 11.481 7.76808 11.1022 8.1405L12.2475 10.125ZM10.95 10.8765L9.80399 8.89125C9.27843 9.03714 8.72306 9.03714 8.1975 8.89125L7.0515 10.8765C7.6545 11.1172 8.31149 11.25 9.00074 11.25C9.68924 11.25 10.347 11.1172 10.95 10.8765ZM8.99999 6.75C9.19891 6.75 9.38967 6.67098 9.53032 6.53033C9.67098 6.38968 9.74999 6.19891 9.74999 6C9.74999 5.80109 9.67098 5.61032 9.53032 5.46967C9.38967 5.32902 9.19891 5.25 8.99999 5.25C8.80108 5.25 8.61032 5.32902 8.46966 5.46967C8.32901 5.61032 8.24999 5.80109 8.24999 6C8.24999 6.19891 8.32901 6.38968 8.46966 6.53033C8.61032 6.67098 8.80108 6.75 8.99999 6.75V6.75Z" fill="#0153FF"/>
</svg>
