<svg width="17" height="18" viewBox="0 0 17 18" fill="none" xmlns="http://www.w3.org/2000/svg">
<rect width="17" height="17" transform="translate(0 0.5)" fill="white"/>
<path d="M3.41669 4.04167C3.41669 3.36758 3.68447 2.72109 4.16112 2.24444C4.63778 1.76778 5.28426 1.5 5.95835 1.5H8.50002V6.58333H5.95835C5.28426 6.58333 4.63778 6.31555 4.16112 5.8389C3.68447 5.36224 3.41669 4.71576 3.41669 4.04167Z" fill="#F24E1E" stroke="black" stroke-width="1.34559" stroke-linecap="round" stroke-linejoin="round"/>
<path d="M8.5 1.5H11.0417C11.3754 1.5 11.706 1.56574 12.0143 1.69347C12.3227 1.8212 12.6029 2.00842 12.8389 2.24444C13.0749 2.48045 13.2621 2.76064 13.3899 3.06901C13.5176 3.37738 13.5833 3.70789 13.5833 4.04167C13.5833 4.37544 13.5176 4.70595 13.3899 5.01432C13.2621 5.32269 13.0749 5.60288 12.8389 5.8389C12.6029 6.07491 12.3227 6.26213 12.0143 6.38986C11.706 6.51759 11.3754 6.58333 11.0417 6.58333H8.5V1.5Z" fill="#FF7262" stroke="black" stroke-width="1.34559" stroke-linecap="round" stroke-linejoin="round"/>
<path d="M8.5 9.12495C8.5 8.79117 8.56574 8.46067 8.69347 8.1523C8.8212 7.84393 9.00842 7.56374 9.24444 7.32772C9.48045 7.0917 9.76064 6.90449 10.069 6.77676C10.3774 6.64902 10.7079 6.58328 11.0417 6.58328C11.3754 6.58328 11.706 6.64902 12.0143 6.77676C12.3227 6.90449 12.6029 7.0917 12.8389 7.32772C13.0749 7.56374 13.2621 7.84393 13.3899 8.1523C13.5176 8.46067 13.5833 8.79117 13.5833 9.12495C13.5833 9.45873 13.5176 9.78923 13.3899 10.0976C13.2621 10.406 13.0749 10.6862 12.8389 10.9222C12.6029 11.1582 12.3227 11.3454 12.0143 11.4731C11.706 11.6009 11.3754 11.6666 11.0417 11.6666C10.7079 11.6666 10.3774 11.6009 10.069 11.4731C9.76064 11.3454 9.48045 11.1582 9.24444 10.9222C9.00842 10.6862 8.8212 10.406 8.69347 10.0976C8.56574 9.78923 8.5 9.45873 8.5 9.12495Z" fill="#1ABCFE" stroke="black" stroke-width="1.34559" stroke-linecap="round" stroke-linejoin="round"/>
<path d="M3.41669 14.2084C3.41669 13.5343 3.68447 12.8878 4.16112 12.4112C4.63778 11.9345 5.28426 11.6667 5.95835 11.6667H8.50002V14.2084C8.50002 14.8825 8.23224 15.529 7.75558 16.0056C7.27893 16.4823 6.63245 16.7501 5.95835 16.7501C5.28426 16.7501 4.63778 16.4823 4.16112 16.0056C3.68447 15.529 3.41669 14.8825 3.41669 14.2084Z" fill="#0ACF83" stroke="black" stroke-width="1.34559" stroke-linecap="round" stroke-linejoin="round"/>
<path d="M3.41669 9.12495C3.41669 8.45086 3.68447 7.80437 4.16112 7.32772C4.63778 6.85106 5.28426 6.58328 5.95835 6.58328H8.50002V11.6666H5.95835C5.28426 11.6666 4.63778 11.3988 4.16112 10.9222C3.68447 10.4455 3.41669 9.79904 3.41669 9.12495Z" fill="#A259FF" stroke="black" stroke-width="1.34559" stroke-linecap="round" stroke-linejoin="round"/>
</svg>
