<svg width="20" height="20" viewBox="0 0 20 20" fill="none" xmlns="http://www.w3.org/2000/svg">
<path d="M4.90246 15.5442C4.65246 15.3775 4.43746 15.165 4.1858 14.8642C4.05517 14.7043 3.92572 14.5435 3.79746 14.3817C3.41163 13.9025 3.1683 13.6817 2.91663 13.5908C2.70855 13.5161 2.53866 13.3618 2.44434 13.1619C2.35003 12.9619 2.33901 12.7327 2.41371 12.5246C2.48842 12.3165 2.64272 12.1466 2.84268 12.0523C3.04264 11.958 3.27188 11.947 3.47996 12.0217C4.10663 12.2467 4.5308 12.6342 5.10246 13.345C5.02413 13.2475 5.3858 13.7008 5.4633 13.7942C5.62163 13.9833 5.7383 14.0983 5.82996 14.1592C5.99996 14.2733 6.31913 14.3225 6.7883 14.2758C6.80746 13.9575 6.86663 13.6483 6.95663 13.3633C4.4833 12.7583 3.0833 11.1633 3.0833 8.03333C3.0833 7 3.39163 6.07 3.96496 5.29C3.7833 4.545 3.8108 3.64417 4.21663 2.63C4.26269 2.51528 4.33369 2.41224 4.42449 2.32836C4.5153 2.24447 4.62363 2.18184 4.74163 2.145C4.80913 2.125 4.84746 2.11583 4.91496 2.10583C5.58413 2.00333 6.52913 2.2475 7.7608 3.01917C8.49479 2.84757 9.24617 2.76144 9.99996 2.7625C10.76 2.7625 11.515 2.84917 12.2366 3.01917C13.4675 2.24167 14.4141 1.9975 15.0883 2.10583C15.1591 2.11667 15.2191 2.13083 15.27 2.1475C15.3857 2.18565 15.4916 2.24869 15.5803 2.3322C15.669 2.41571 15.7383 2.51765 15.7833 2.63083C16.1891 3.64417 16.2166 4.545 16.035 5.28917C16.6108 6.06917 16.9166 6.99333 16.9166 8.03333C16.9166 11.1642 15.5216 12.7542 13.0483 13.36C13.1525 13.7058 13.2066 14.0925 13.2066 14.51C13.2067 15.2645 13.2034 16.0189 13.1966 16.7733C13.3838 16.8142 13.5511 16.9182 13.6706 17.068C13.79 17.2177 13.8542 17.4041 13.8523 17.5956C13.8505 17.7871 13.7827 17.9722 13.6604 18.1196C13.5381 18.267 13.3687 18.3678 13.1808 18.405C12.2316 18.595 11.5283 17.9617 11.5283 17.1342L11.53 16.7625L11.5341 16.175C11.5383 15.585 11.54 15.06 11.54 14.51C11.54 13.9292 11.3875 13.55 11.1858 13.3767C10.635 12.9017 10.9141 11.9975 11.6358 11.9167C14.1083 11.6392 15.25 10.6817 15.25 8.03333C15.25 7.2375 14.99 6.58 14.4891 6.03C14.3836 5.91437 14.3128 5.77136 14.2848 5.61734C14.2568 5.46333 14.2727 5.30454 14.3308 5.15917C14.4691 4.81417 14.5283 4.36167 14.4108 3.81417L14.4025 3.81667C13.9933 3.9325 13.4775 4.18333 12.8541 4.6075C12.7536 4.67571 12.6394 4.72112 12.5195 4.74056C12.3996 4.75999 12.2769 4.75297 12.16 4.72C11.4565 4.52524 10.7298 4.42739 9.99996 4.42917C9.2583 4.42917 8.5233 4.52833 7.83996 4.72083C7.72348 4.75355 7.60127 4.7605 7.48182 4.74122C7.36238 4.72194 7.24857 4.67687 7.1483 4.60917C6.52163 4.18667 6.0033 3.93667 5.59163 3.82C5.47163 4.36417 5.5308 4.815 5.6683 5.15917C5.72647 5.30446 5.74255 5.46321 5.71469 5.61722C5.68684 5.77123 5.61618 5.91428 5.5108 6.03C5.0133 6.575 4.74996 7.245 4.74996 8.03333C4.74996 10.6767 5.89246 11.64 8.35163 11.9167C9.07246 11.9975 9.35246 12.8975 8.80496 13.3733C8.64496 13.5133 8.44746 13.9833 8.44746 14.51V17.135C8.44746 17.9567 7.75163 18.5725 6.81413 18.4083C6.62393 18.3749 6.45124 18.2765 6.32556 18.1299C6.19988 17.9833 6.12902 17.7976 6.12508 17.6045C6.12114 17.4115 6.18438 17.223 6.30398 17.0714C6.42358 16.9198 6.59212 16.8145 6.7808 16.7733V15.9483C6.02246 15.9992 5.3958 15.875 4.90246 15.5442Z" fill="#6B00BF"/>
</svg>
