<svg width="24" height="24" viewBox="0 0 24 24" fill="none" xmlns="http://www.w3.org/2000/svg">
<path d="M12 2.75C10.7853 2.75 9.58244 2.98926 8.46018 3.45411C7.33792 3.91897 6.3182 4.60032 5.45926 5.45926C4.60032 6.3182 3.91897 7.33792 3.45411 8.46018C2.98926 9.58244 2.75 10.7853 2.75 12C2.75 13.2147 2.98926 14.4176 3.45411 15.5398C3.91897 16.6621 4.60032 17.6818 5.45926 18.5407C6.3182 19.3997 7.33792 20.081 8.46018 20.5459C9.58244 21.0107 10.7853 21.25 12 21.25C13.2147 21.25 14.4176 21.0107 15.5398 20.5459C16.6621 20.081 17.6818 19.3997 18.5407 18.5407C19.3997 17.6818 20.081 16.6621 20.5459 15.5398C21.0107 14.4176 21.25 13.2147 21.25 12C21.25 10.7853 21.0107 9.58244 20.5459 8.46018C20.081 7.33792 19.3997 6.31821 18.5407 5.45926C17.6818 4.60032 16.6621 3.91897 15.5398 3.45411C14.4176 2.98926 13.2147 2.75 12 2.75ZM10.0414 4.50158C10.6795 4.33491 11.3376 4.25 12 4.25C13.0177 4.25 14.0255 4.45046 14.9658 4.83993C15.9061 5.22941 16.7604 5.80027 17.4801 6.51992C17.6358 6.67564 17.7845 6.83767 17.926 7.0055C16.7362 7.97266 15.0632 8.73125 13.222 9.30571C12.3009 7.36908 11.2836 5.84842 10.0414 4.50158ZM8.51628 5.07712C9.78171 6.3522 10.8124 7.78763 11.7554 9.71735C11.57 9.76402 11.3838 9.80901 11.1971 9.85235C8.58894 10.4577 5.99645 10.7137 4.35206 10.7464C4.44815 10.1602 4.61155 9.58558 4.83993 9.0342C5.22941 8.09393 5.80027 7.23958 6.51992 6.51992C7.10507 5.93478 7.77926 5.44801 8.51628 5.07712ZM4.25398 12.2482C5.99982 12.2243 8.76112 11.9576 11.5362 11.3135C11.8174 11.2482 12.1 11.1788 12.3829 11.105C12.6755 11.8022 12.9626 12.5582 13.2489 13.384C10.197 14.2948 7.92846 16.288 6.7867 17.7345C6.69586 17.6519 6.60691 17.5671 6.51992 17.4801C5.80027 16.7604 5.22941 15.9061 4.83993 14.9658C4.48215 14.102 4.28387 13.1813 4.25398 12.2482ZM7.9892 18.6314C9.00968 17.3468 11.0287 15.5994 13.7215 14.8122C14.1286 16.0977 14.5396 17.5361 14.9685 19.1589L14.9658 19.1601C14.0255 19.5495 13.0177 19.75 12 19.75C10.9823 19.75 9.97448 19.5495 9.0342 19.1601C8.67221 19.0101 8.32295 18.8333 7.9892 18.6314ZM16.3269 18.4297C15.9421 16.9884 15.5684 15.6837 15.1948 14.4949C16.4415 14.3208 17.8008 14.3674 19.2474 14.7456C19.2194 14.8194 19.1903 14.8928 19.1601 14.9658C18.7706 15.9061 18.1997 16.7604 17.4801 17.4801C17.1263 17.8339 16.74 18.1517 16.3269 18.4297ZM19.6405 13.2979C17.8698 12.8328 16.2185 12.8001 14.7192 13.0452C14.4284 12.1977 14.1348 11.4144 13.8334 10.6859C15.6755 10.0978 17.4386 9.30429 18.779 8.24399C18.9206 8.49948 19.0478 8.76328 19.1601 9.0342C19.5495 9.97448 19.75 10.9823 19.75 12C19.75 12.436 19.7132 12.8701 19.6405 13.2979Z" fill="#1D1D25"/>
</svg>
