<svg width="24" height="24" viewBox="0 0 24 24" fill="none" xmlns="http://www.w3.org/2000/svg">
<path d="M5.04878 4.5C3.64113 4.5 2.5 5.61929 2.5 7V17C2.5 18.3807 3.64113 19.5 5.04878 19.5H18.9512C20.3589 19.5 21.5 18.3807 21.5 17V7C21.5 5.61929 20.3589 4.5 18.9512 4.5H5.04878ZM4.3602 6.08604C4.5527 5.94628 4.7909 5.86364 5.04878 5.86364H18.9512C19.2091 5.86364 19.4473 5.94628 19.6398 6.08604L12.6872 11.1109C12.2786 11.4063 11.7214 11.4063 11.3128 11.1109L4.3602 6.08604ZM3.89024 7.44022L10.4881 12.2087C11.3872 12.8585 12.6128 12.8585 13.5119 12.2087L20.1098 7.44022V17C20.1098 17.6276 19.5911 18.1364 18.9512 18.1364H5.04878C4.40894 18.1364 3.89024 17.6276 3.89024 17V7.44022Z" fill="#1D1D25"/>
</svg>
