<svg width="44" height="44" viewBox="0 0 44 44" fill="none" xmlns="http://www.w3.org/2000/svg">
<path d="M24.1821 10.5C24.5963 10.5 24.9321 10.1642 24.9321 9.75C24.9321 9.33579 24.5963 9 24.1821 9H19.4094C18.9952 9 18.6594 9.33579 18.6594 9.75C18.6594 10.1642 18.9952 10.5 19.4094 10.5L24.1821 10.5Z" fill="white"/>
<path d="M22.5454 16.5114C22.5454 16.0971 22.2096 15.7614 21.7954 15.7614C21.3812 15.7614 21.0454 16.0971 21.0454 16.5114V21.2841C21.0454 21.6983 21.3812 22.0341 21.7954 22.0341C22.2096 22.0341 22.5454 21.6983 22.5454 21.2841V16.5114Z" fill="white"/>
<path d="M21.7955 11.7841C16.1094 11.7841 11.5 16.3935 11.5 22.0795C11.5 27.7656 16.1094 32.375 21.7955 32.375C27.4815 32.375 32.0909 27.7656 32.0909 22.0795C32.0909 19.3877 31.0579 16.9372 29.3666 15.1027L29.814 14.6553C30.1069 14.3624 30.1069 13.8875 29.814 13.5946C29.5211 13.3017 29.0463 13.3017 28.7534 13.5946L28.272 14.076C26.5031 12.6427 24.2495 11.7841 21.7955 11.7841ZM13 22.0795C13 17.2219 16.9379 13.2841 21.7955 13.2841C26.6531 13.2841 30.5909 17.2219 30.5909 22.0795C30.5909 26.9371 26.6531 30.875 21.7955 30.875C16.9379 30.875 13 26.9371 13 22.0795Z" fill="white"/>
</svg>
