<svg width="24" height="24" viewBox="0 0 24 24" fill="none" xmlns="http://www.w3.org/2000/svg">
<g clip-path="url(#clip0)">
<path fill-rule="evenodd" clip-rule="evenodd" d="M21.24 16.96C20.7732 16.96 20.3256 17.1454 19.9955 17.4755C19.6654 17.8056 19.48 18.2532 19.48 18.72C19.48 19.1868 19.2946 19.6344 18.9645 19.9645C18.6344 20.2946 18.1868 20.48 17.72 20.48H14.2V7.28H21.24C21.7068 7.28 22.1544 7.46543 22.4845 7.79549C22.8146 8.12556 23 8.57322 23 9.04V15.2C23 15.6668 22.8146 16.1144 22.4845 16.4445C22.1544 16.7746 21.7068 16.96 21.24 16.96ZM17.72 9.04H15.96V10.8H17.72V9.04ZM17.72 16.96H15.96V18.72H17.72V16.96ZM21.24 9.04H19.48V10.8H21.24V9.04ZM11.12 22.24H2.32C1.96991 22.24 1.63417 22.1009 1.38662 21.8534C1.13907 21.6058 1 21.2701 1 20.92V5.96C1 5.60991 1.13907 5.27417 1.38662 5.02662C1.63417 4.77907 1.96991 4.64 2.32 4.64H11.12C11.4701 4.64 11.8058 4.77907 12.0534 5.02662C12.3009 5.27417 12.44 5.60991 12.44 5.96V20.92C12.44 21.2701 12.3009 21.6058 12.0534 21.8534C11.8058 22.1009 11.4701 22.24 11.12 22.24ZM4.52 2.88C4.52 2.64661 4.61271 2.42278 4.77775 2.25775C4.94278 2.09271 5.16661 2 5.4 2H8.04C8.27339 2 8.49722 2.09271 8.66225 2.25775C8.82729 2.42278 8.92 2.64661 8.92 2.88V3.76H4.52V2.88Z" fill="#1D1D25"/>
</g>
<defs>
<clipPath id="clip0">
<rect width="24" height="24" fill="white"/>
</clipPath>
</defs>
</svg>
