<svg width="24" height="24" viewBox="0 0 24 24" fill="none" xmlns="http://www.w3.org/2000/svg">
<g clip-path="url(#clip0)">
<path d="M20.578 7.70807C20.2302 8.06291 19.9742 8.06291 19.6264 7.70807L16.1285 4.17282C15.7741 3.81798 15.7741 3.56171 16.1285 3.21344L17.5592 1.76123C17.7276 1.5939 17.9552 1.5 18.1925 1.5C18.4297 1.5 18.6574 1.5939 18.8258 1.76123L22.0021 4.9745C22.0911 5.0592 22.1619 5.16113 22.2103 5.27409C22.2587 5.38706 22.2836 5.50869 22.2836 5.63161C22.2836 5.75452 22.2587 5.87616 22.2103 5.98912C22.1619 6.10208 22.0911 6.20401 22.0021 6.28872L20.578 7.70807ZM19.4427 8.86459L9.29018 19.1221C9.20291 19.2088 9.08497 19.2574 8.96204 19.2574C8.83912 19.2574 8.72118 19.2088 8.63391 19.1221L4.84068 15.2911C4.7962 15.2488 4.76079 15.1978 4.73659 15.1413C4.71239 15.0848 4.69991 15.024 4.69991 14.9626C4.69991 14.9011 4.71239 14.8403 4.73659 14.7838C4.76079 14.7273 4.7962 14.6764 4.84068 14.634L14.9866 4.36338C15.0278 4.31708 15.0784 4.28003 15.1349 4.25466C15.1915 4.22929 15.2528 4.21618 15.3147 4.21618C15.3767 4.21618 15.438 4.22929 15.4945 4.25466C15.5511 4.28003 15.6016 4.31708 15.6429 4.36338L19.4623 8.22062C19.506 8.26345 19.5407 8.31457 19.5644 8.37098C19.588 8.4274 19.6002 8.48798 19.6002 8.54918C19.6002 8.61037 19.588 8.67095 19.5644 8.72737C19.5407 8.78378 19.506 8.8349 19.4623 8.87773L19.4427 8.86459ZM6.5601 11.3485L5.136 9.94882L7.80045 7.2481L7.14418 6.54499L4.44035 9.25885L3.12782 7.94463L5.83164 5.25705L5.17537 4.56052L2.46499 7.27438L1.80872 6.61727C1.70874 6.52724 1.62941 6.4166 1.57616 6.29297C1.52292 6.16933 1.49703 6.03562 1.50027 5.90102C1.49878 5.77042 1.52358 5.64085 1.57319 5.52005C1.6228 5.39925 1.69621 5.28969 1.78903 5.19791L5.18194 1.80723C5.36875 1.62184 5.62112 1.51782 5.88414 1.51782C6.14717 1.51782 6.39954 1.62184 6.58635 1.80723L11.3443 6.57127L6.6126 11.309L6.5601 11.3485ZM2.37967 21.9345L2.01872 22.0594L1.92685 21.9674L2.05154 21.606L2.37967 21.9345ZM2.57655 20.0486L3.88909 21.4022L2.51092 21.8622L2.09747 21.468L2.57655 20.0486ZM2.74062 19.5689L4.2041 15.2911L8.6536 19.7989L4.38785 21.2051L2.74062 19.5689ZM17.4476 12.6627L22.2121 17.4267C22.3965 17.6115 22.5 17.8621 22.5 18.1233C22.5 18.3845 22.3965 18.635 22.2121 18.8198L18.8192 22.2039C18.7288 22.299 18.6198 22.3743 18.4989 22.4252C18.3781 22.4761 18.2481 22.5014 18.117 22.4996C17.9866 22.5034 17.857 22.4789 17.7369 22.4279C17.6168 22.3769 17.5092 22.3005 17.4213 22.2039L16.6732 21.4614L19.1276 18.9644L18.4386 18.2678L15.9776 20.7649L14.665 19.4506L17.1326 16.947L16.4435 16.2505L13.9694 18.8132L12.6568 17.4662L17.4476 12.6627Z" fill="#1D1D25"/>
</g>
<defs>
<clipPath id="clip0">
<rect width="24" height="24" fill="white"/>
</clipPath>
</defs>
</svg>
