<svg width="24" height="25" viewBox="0 0 24 25" fill="none" xmlns="http://www.w3.org/2000/svg">
<path fill-rule="evenodd" clip-rule="evenodd" d="M16.6435 9.59114C16.3955 9.56344 16.1462 9.54489 15.8937 9.54489H15.8937C12.1945 9.54489 9.27347 12.3056 9.27342 15.7075C9.27342 16.2731 9.36155 16.8183 9.5139 17.3389C9.27342 17.3578 9.03102 17.3698 8.78678 17.3698C7.96897 17.3698 7.2862 17.2296 6.50971 17.0702C6.36331 17.0402 6.21357 17.0095 6.05896 16.9788L3.33747 18.3439L4.11622 16.0015C2.16651 14.6395 1 12.8835 1 10.745C1 7.04034 4.50658 4.12284 8.78683 4.12286C12.6157 4.12286 15.9699 6.45362 16.6435 9.59114ZM12.6812 8.40541C12.6812 7.81933 12.2928 7.43376 11.7066 7.43376V7.43378C11.1231 7.43378 10.5376 7.81936 10.5376 8.40541C10.5376 8.98899 11.123 9.3799 11.7066 9.3799C12.2928 9.3799 12.6812 8.98901 12.6812 8.40541ZM5.08448 8.40544C5.08448 8.98901 5.67368 9.37992 6.25733 9.37992C6.84088 9.37992 7.22934 8.98901 7.22934 8.40544C7.22934 7.81938 6.84088 7.4338 6.25733 7.4338C5.67373 7.4338 5.08448 7.81938 5.08448 8.40544ZM16.386 9.96326C19.885 9.96326 22.9999 12.5009 22.9999 15.6138C22.9999 17.3698 21.8359 18.9247 20.2728 20.0972L20.8582 22.043L18.7228 20.8734C17.9441 21.0685 17.1616 21.2644 16.386 21.2644C12.6811 21.2644 9.76318 18.7324 9.76318 15.6138C9.76318 12.5009 12.6811 9.96326 16.386 9.96326ZM13.4598 13.8606C13.4598 14.2541 13.8514 14.6396 14.2392 14.6396C14.8279 14.6396 15.2138 14.2541 15.2138 13.8606C15.2138 13.4725 14.8278 13.0819 14.2392 13.0819C13.8514 13.0819 13.4598 13.4725 13.4598 13.8606ZM17.7483 13.8606C17.7483 14.2541 18.1367 14.6396 18.522 14.6396C19.1056 14.6396 19.4965 14.2541 19.4965 13.8606C19.4965 13.4725 19.1056 13.0819 18.522 13.0819C18.1367 13.0819 17.7483 13.4725 17.7483 13.8606Z" fill="#1D1D25"/>
</svg>
