<svg width="24" height="25" viewBox="0 0 24 25" fill="none" xmlns="http://www.w3.org/2000/svg">
<rect width="24" height="24" transform="translate(0 0.751984)" fill="white"/>
<path fill-rule="evenodd" clip-rule="evenodd" d="M14.8335 10.6687C14.5599 10.6687 14.289 10.7225 14.0362 10.8272C13.7835 10.9319 13.5538 11.0854 13.3604 11.2788C13.1669 11.4723 13.0134 11.702 12.9087 11.9547C12.8041 12.2075 12.7502 12.4784 12.7502 12.752C12.7502 13.0256 12.8041 13.2965 12.9087 13.5492C13.0134 13.802 13.1669 14.0317 13.3604 14.2251C13.5538 14.4186 13.7835 14.572 14.0362 14.6767C14.289 14.7814 14.5599 14.8353 14.8335 14.8353C15.1071 14.8353 15.378 14.7814 15.6308 14.6767C15.8835 14.572 16.1132 14.4186 16.3066 14.2251C16.5001 14.0317 16.6535 13.802 16.7582 13.5492C16.8629 13.2965 16.9168 13.0256 16.9168 12.752C16.9168 12.4784 16.8629 12.2075 16.7582 11.9547C16.6535 11.702 16.5001 11.4723 16.3066 11.2788C16.1132 11.0854 15.8835 10.9319 15.6308 10.8272C15.378 10.7225 15.1071 10.6687 14.8335 10.6687ZM13.4622 9.44142C13.897 9.26134 14.3629 9.16865 14.8335 9.16865C15.3041 9.16865 15.77 9.26134 16.2048 9.44142C16.4995 9.56351 16.776 9.72415 17.0272 9.91865C17.1465 10.011 17.2602 10.111 17.3673 10.2182C17.7 10.5509 17.964 10.946 18.1441 11.3807C18.3241 11.8155 18.4168 12.2814 18.4168 12.752C18.4168 13.2226 18.3241 13.6885 18.1441 14.1233C17.964 14.558 17.7 14.953 17.3673 15.2858C17.0346 15.6185 16.6395 15.8825 16.2048 16.0626C15.77 16.2426 15.3041 16.3353 14.8335 16.3353C14.3629 16.3353 13.897 16.2426 13.4622 16.0626C13.0275 15.8825 12.6324 15.6185 12.2997 15.2858C11.967 14.953 11.703 14.558 11.5229 14.1233C11.3428 13.6885 11.2502 13.2226 11.2502 12.752C11.2502 12.2814 11.3428 11.8155 11.5229 11.3807C11.703 10.946 11.967 10.5509 12.2997 10.2182C12.4382 10.0797 12.5875 9.95306 12.746 9.83946L12.7502 9.83651C12.9712 9.67855 13.21 9.54587 13.4622 9.44142Z" fill="#1D1D25"/>
<path fill-rule="evenodd" clip-rule="evenodd" d="M9.16683 16.3353C8.61429 16.3353 8.08439 16.5548 7.69369 16.9455C7.30299 17.3362 7.0835 17.8661 7.0835 18.4186C7.0835 18.9712 7.30299 19.5011 7.69369 19.8918C8.08439 20.2825 8.61429 20.502 9.16683 20.502C9.71936 20.502 10.2493 20.2825 10.64 19.8918C11.0307 19.5011 11.2502 18.9712 11.2502 18.4186V16.3353H9.16683ZM6.63303 15.8848C7.30504 15.2128 8.21647 14.8353 9.16683 14.8353H12.0002C12.4144 14.8353 12.7502 15.1711 12.7502 15.5853V18.4186C12.7502 19.369 12.3726 20.2804 11.7006 20.9524C11.0286 21.6245 10.1172 22.002 9.16683 22.002C8.21647 22.002 7.30504 21.6245 6.63303 20.9524C5.96102 20.2804 5.5835 19.369 5.5835 18.4186C5.5835 17.4683 5.96102 16.5569 6.63303 15.8848Z" fill="#1D1D25"/>
<path fill-rule="evenodd" clip-rule="evenodd" d="M9.16683 10.6687C8.6143 10.6687 8.08439 10.8881 7.69369 11.2788C7.30299 11.6695 7.0835 12.1994 7.0835 12.752C7.0835 13.3045 7.30299 13.8344 7.69369 14.2251C8.08439 14.6158 8.6143 14.8353 9.16683 14.8353L11.2502 14.8353V10.6687L9.16683 10.6687ZM6.63303 10.2182C6.74052 10.1107 6.85414 10.0107 6.97307 9.91865C7.59761 9.43506 8.36849 9.16865 9.16683 9.16865L12.0002 9.16865C12.3876 9.16865 12.7065 9.46247 12.746 9.83946C12.7488 9.86549 12.7502 9.8919 12.7502 9.91865V15.5853C12.7502 15.9995 12.4144 16.3353 12.0002 16.3353L9.16683 16.3353C8.21647 16.3353 7.30504 15.9578 6.63303 15.2858C5.96102 14.6138 5.5835 13.7023 5.5835 12.752C5.5835 11.8016 5.96102 10.8902 6.63303 10.2182Z" fill="#1D1D25"/>
<path d="M7.69369 5.61218C8.08439 5.22148 8.6143 5.00198 9.16683 5.00198H11.2502V9.16865L12.0002 9.16865C12.3876 9.16865 12.7065 9.46247 12.746 9.83946L12.7502 9.83651C12.9712 9.67855 13.21 9.54587 13.4622 9.44142C13.897 9.26134 14.3629 9.16865 14.8335 9.16865H12.7502V5.00198H14.8335C15.1071 5.00198 15.378 5.05587 15.6308 5.16057C15.8835 5.26527 16.1132 5.41872 16.3066 5.61218C16.5001 5.80563 16.6535 6.0353 16.7582 6.28806C16.8629 6.54082 16.9168 6.81173 16.9168 7.08532C16.9168 7.3589 16.8629 7.62981 16.7582 7.88257C16.6535 8.13534 16.5001 8.365 16.3066 8.55846C16.1132 8.75191 15.8835 8.90537 15.6308 9.01007C15.378 9.11476 15.1071 9.16865 14.8335 9.16865C15.3041 9.16865 15.77 9.26134 16.2048 9.44142C16.4995 9.56351 16.776 9.72415 17.0272 9.91865C17.1465 9.82628 17.2601 9.72626 17.3673 9.61912C17.7 9.28637 17.964 8.89135 18.1441 8.4566C18.3241 8.02185 18.4168 7.55589 18.4168 7.08532C18.4168 6.61475 18.3241 6.14878 18.1441 5.71403C17.964 5.27929 17.7 4.88426 17.3673 4.55152C17.0346 4.21877 16.6395 3.95483 16.2048 3.77475C15.77 3.59467 15.3041 3.50198 14.8335 3.50198H12.0002H9.16683C8.21647 3.50198 7.30504 3.87951 6.63303 4.55152C5.96102 5.22352 5.5835 6.13496 5.5835 7.08532C5.5835 8.03568 5.96102 8.94711 6.63303 9.61912C6.74052 9.72661 6.85414 9.82657 6.97307 9.91865C7.59761 9.43506 8.36849 9.16865 9.16683 9.16865C8.6143 9.16865 8.08439 8.94916 7.69369 8.55846C7.30299 8.16775 7.0835 7.63785 7.0835 7.08532C7.0835 6.53278 7.30299 6.00288 7.69369 5.61218Z" fill="#1D1D25"/>
</svg>
