<svg width="24" height="24" viewBox="0 0 24 24" fill="none" xmlns="http://www.w3.org/2000/svg">
<g clip-path="url(#clip0)">
<path d="M11 2.875C11 2.37772 11.1975 1.90081 11.5492 1.54917C11.9008 1.19754 12.3777 1 12.875 1C13.3723 1 13.8492 1.19754 14.2008 1.54917C14.5525 1.90081 14.75 2.37772 14.75 2.875V3.5C14.75 3.83152 14.8817 4.14946 15.1161 4.38388C15.3505 4.6183 15.6685 4.75 16 4.75H19.75C20.0815 4.75 20.3995 4.8817 20.6339 5.11612C20.8683 5.35054 21 5.66848 21 6V9.75C21 10.0815 20.8683 10.3995 20.6339 10.6339C20.3995 10.8683 20.0815 11 19.75 11H19.125C18.6277 11 18.1508 11.1975 17.7992 11.5492C17.4475 11.9008 17.25 12.3777 17.25 12.875C17.25 13.3723 17.4475 13.8492 17.7992 14.2008C18.1508 14.5525 18.6277 14.75 19.125 14.75H19.75C20.0815 14.75 20.3995 14.8817 20.6339 15.1161C20.8683 15.3505 21 15.6685 21 16V19.75C21 20.0815 20.8683 20.3995 20.6339 20.6339C20.3995 20.8683 20.0815 21 19.75 21H16C15.6685 21 15.3505 20.8683 15.1161 20.6339C14.8817 20.3995 14.75 20.0815 14.75 19.75V19.125C14.75 18.6277 14.5525 18.1508 14.2008 17.7992C13.8492 17.4475 13.3723 17.25 12.875 17.25C12.3777 17.25 11.9008 17.4475 11.5492 17.7992C11.1975 18.1508 11 18.6277 11 19.125V19.75C11 20.0815 10.8683 20.3995 10.6339 20.6339C10.3995 20.8683 10.0815 21 9.75 21H6C5.66848 21 5.35054 20.8683 5.11612 20.6339C4.8817 20.3995 4.75 20.0815 4.75 19.75V16C4.75 15.6685 4.6183 15.3505 4.38388 15.1161C4.14946 14.8817 3.83152 14.75 3.5 14.75H2.875C2.37772 14.75 1.90081 14.5525 1.54917 14.2008C1.19754 13.8492 1 13.3723 1 12.875C1 12.3777 1.19754 11.9008 1.54917 11.5492C1.90081 11.1975 2.37772 11 2.875 11H3.5C3.83152 11 4.14946 10.8683 4.38388 10.6339C4.6183 10.3995 4.75 10.0815 4.75 9.75V6C4.75 5.66848 4.8817 5.35054 5.11612 5.11612C5.35054 4.8817 5.66848 4.75 6 4.75H9.75C10.0815 4.75 10.3995 4.6183 10.6339 4.38388C10.8683 4.14946 11 3.83152 11 3.5V2.875Z" fill="#1D1D25"/>
</g>
<defs>
<clipPath id="clip0">
<rect width="24" height="24" fill="white"/>
</clipPath>
</defs>
</svg>
