<svg width="20" height="21" viewBox="0 0 20 21" fill="none" xmlns="http://www.w3.org/2000/svg">
<g clip-path="url(#clip0)">
<path d="M4.16675 5.08329C4.16675 4.30974 4.47404 3.56788 5.02102 3.0209C5.568 2.47392 6.30987 2.16663 7.08341 2.16663H10.0001V7.99996H7.08341C6.30987 7.99996 5.568 7.69267 5.02102 7.14569C4.47404 6.59871 4.16675 5.85684 4.16675 5.08329Z" stroke="#333342" stroke-width="1.66667" stroke-linecap="round" stroke-linejoin="round"/>
<path d="M10 2.16663H12.9167C13.2997 2.16663 13.679 2.24207 14.0328 2.38864C14.3867 2.53522 14.7082 2.75006 14.9791 3.0209C15.2499 3.29174 15.4647 3.61327 15.6113 3.96713C15.7579 4.321 15.8333 4.70027 15.8333 5.08329C15.8333 5.46631 15.7579 5.84559 15.6113 6.19945C15.4647 6.55332 15.2499 6.87485 14.9791 7.14569C14.7082 7.41652 14.3867 7.63137 14.0328 7.77794C13.679 7.92452 13.2997 7.99996 12.9167 7.99996H10V2.16663Z" stroke="#333342" stroke-width="1.66667" stroke-linecap="round" stroke-linejoin="round"/>
<path d="M10 10.9167C10 10.5336 10.0754 10.1544 10.222 9.80051C10.3686 9.44664 10.5834 9.12511 10.8543 8.85427C11.1251 8.58343 11.4466 8.36859 11.8005 8.22202C12.1544 8.07544 12.5336 8 12.9167 8C13.2997 8 13.679 8.07544 14.0328 8.22202C14.3867 8.36859 14.7082 8.58343 14.9791 8.85427C15.2499 9.12511 15.4647 9.44664 15.6113 9.80051C15.7579 10.1544 15.8333 10.5336 15.8333 10.9167C15.8333 11.2997 15.7579 11.679 15.6113 12.0328C15.4647 12.3867 15.2499 12.7082 14.9791 12.9791C14.7082 13.2499 14.3867 13.4647 14.0328 13.6113C13.679 13.7579 13.2997 13.8333 12.9167 13.8333C12.5336 13.8333 12.1544 13.7579 11.8005 13.6113C11.4466 13.4647 11.1251 13.2499 10.8543 12.9791C10.5834 12.7082 10.3686 12.3867 10.222 12.0328C10.0754 11.679 10 11.2997 10 10.9167V10.9167Z" stroke="#333342" stroke-width="1.66667" stroke-linecap="round" stroke-linejoin="round"/>
<path d="M4.16675 16.75C4.16675 15.9765 4.47404 15.2346 5.02102 14.6876C5.568 14.1407 6.30987 13.8334 7.08341 13.8334H10.0001V16.75C10.0001 17.5236 9.69279 18.2655 9.14581 18.8124C8.59883 19.3594 7.85696 19.6667 7.08341 19.6667C6.30987 19.6667 5.568 19.3594 5.02102 18.8124C4.47404 18.2655 4.16675 17.5236 4.16675 16.75Z" stroke="#333342" stroke-width="1.66667" stroke-linecap="round" stroke-linejoin="round"/>
<path d="M4.16675 10.9167C4.16675 10.1431 4.47404 9.40125 5.02102 8.85427C5.568 8.30729 6.30987 8 7.08341 8H10.0001V13.8333H7.08341C6.30987 13.8333 5.568 13.526 5.02102 12.9791C4.47404 12.4321 4.16675 11.6902 4.16675 10.9167Z" stroke="#333342" stroke-width="1.66667" stroke-linecap="round" stroke-linejoin="round"/>
</g>
<defs>
<clipPath id="clip0">
<rect width="20" height="20" fill="white" transform="translate(0 0.5)"/>
</clipPath>
</defs>
</svg>
