<svg width="24" height="24" viewBox="0 0 24 24" fill="none" xmlns="http://www.w3.org/2000/svg">
<path fill-rule="evenodd" clip-rule="evenodd" d="M16.6435 8.83912C16.3955 8.81142 16.1462 8.79288 15.8937 8.79288H15.8937C12.1945 8.79288 9.27347 11.5536 9.27342 14.9555C9.27342 15.5211 9.36155 16.0663 9.5139 16.5869C9.27342 16.6058 9.03102 16.6177 8.78678 16.6177C7.96897 16.6177 7.2862 16.4776 6.50971 16.3182C6.36331 16.2882 6.21357 16.2574 6.05896 16.2268L3.33747 17.5919L4.11622 15.2495C2.16651 13.8875 1 12.1315 1 9.99303C1 6.28833 4.50658 3.37082 8.78683 3.37085C12.6157 3.37085 15.9699 5.7016 16.6435 8.83912ZM12.6812 7.6534C12.6812 7.06732 12.2928 6.68174 11.7066 6.68174V6.68177C11.1231 6.68177 10.5376 7.06734 10.5376 7.6534C10.5376 8.23697 11.123 8.62788 11.7066 8.62788C12.2928 8.62788 12.6812 8.237 12.6812 7.6534ZM5.08448 7.65342C5.08448 8.237 5.67368 8.62791 6.25733 8.62791C6.84088 8.62791 7.22934 8.237 7.22934 7.65342C7.22934 7.06737 6.84088 6.68179 6.25733 6.68179C5.67373 6.68179 5.08448 7.06737 5.08448 7.65342ZM16.386 9.21124C19.885 9.21124 22.9999 11.7488 22.9999 14.8618C22.9999 16.6178 21.8359 18.1727 20.2728 19.3452L20.8582 21.291L18.7228 20.1214C17.9441 20.3165 17.1616 20.5123 16.386 20.5123C12.6811 20.5123 9.76318 17.9804 9.76318 14.8618C9.76318 11.7488 12.6811 9.21124 16.386 9.21124ZM13.4598 13.1086C13.4598 13.502 13.8514 13.8876 14.2392 13.8876C14.8279 13.8876 15.2138 13.502 15.2138 13.1086C15.2138 12.7205 14.8278 12.3299 14.2392 12.3299C13.8514 12.3299 13.4598 12.7205 13.4598 13.1086ZM17.7483 13.1086C17.7483 13.502 18.1367 13.8876 18.522 13.8876C19.1056 13.8876 19.4965 13.502 19.4965 13.1086C19.4965 12.7205 19.1056 12.3299 18.522 12.3299C18.1367 12.3299 17.7483 12.7205 17.7483 13.1086Z" fill="#1D1D25"/>
</svg>
