<svg width="17" height="18" viewBox="0 0 17 18" fill="none" xmlns="http://www.w3.org/2000/svg">
<path d="M16.2917 13.9583C16.2917 14.3341 16.1424 14.6944 15.8767 14.9601C15.6111 15.2257 15.2507 15.375 14.875 15.375H2.12501C1.74929 15.375 1.38895 15.2257 1.12328 14.9601C0.857599 14.6944 0.708344 14.3341 0.708344 13.9583V6.16667C0.708344 5.79094 0.857599 5.43061 1.12328 5.16493C1.38895 4.89926 1.74929 4.75 2.12501 4.75H4.95834L6.37501 2.625H10.625L12.0417 4.75H14.875C15.2507 4.75 15.6111 4.89926 15.8767 5.16493C16.1424 5.43061 16.2917 5.79094 16.2917 6.16667V13.9583Z" stroke="#FF7B01" stroke-width="1.41667" stroke-linecap="round" stroke-linejoin="round"/>
<path d="M8.49999 12.5417C10.0648 12.5417 11.3333 11.2731 11.3333 9.70833C11.3333 8.14353 10.0648 6.875 8.49999 6.875C6.93518 6.875 5.66666 8.14353 5.66666 9.70833C5.66666 11.2731 6.93518 12.5417 8.49999 12.5417Z" stroke="#FF7B01" stroke-width="1.41667" stroke-linecap="round" stroke-linejoin="round"/>
</svg>
