<svg width="24" height="24" viewBox="0 0 24 24" fill="none" xmlns="http://www.w3.org/2000/svg">
<path d="M14.8334 9.91667C15.107 9.91667 15.3779 9.97055 15.6306 10.0753C15.8834 10.1799 16.1131 10.3334 16.3065 10.5269C16.5 10.7203 16.6534 10.95 16.7581 11.2027C16.8628 11.4555 16.9167 11.7264 16.9167 12C16.9167 12.2736 16.8628 12.5445 16.7581 12.7973C16.6534 13.05 16.5 13.2797 16.3065 13.4731C16.1131 13.6666 15.8834 13.8201 15.6306 13.9247C15.3779 14.0294 15.107 14.0833 14.8334 14.0833C14.5598 14.0833 14.2889 14.0294 14.0361 13.9247C13.7834 13.8201 13.5537 13.6666 13.3602 13.4731C13.1668 13.2797 13.0133 13.05 12.9086 12.7973C12.8039 12.5445 12.75 12.2736 12.75 12C12.75 11.7264 12.8039 11.4555 12.9086 11.2027C13.0133 10.95 13.1668 10.7203 13.3602 10.5269C13.5537 10.3334 13.7834 10.1799 14.0361 10.0753C14.2889 9.97055 14.5598 9.91667 14.8334 9.91667ZM13.4621 8.68943C13.2099 8.79389 12.9711 8.92657 12.75 9.08453L12.7459 9.08748C12.5874 9.20107 12.4381 9.32767 12.2996 9.4662C11.9668 9.79894 11.7029 10.194 11.5228 10.6287C11.3427 11.0635 11.25 11.5294 11.25 12C11.25 12.4706 11.3427 12.9365 11.5228 13.3713C11.7029 13.806 11.9668 14.2011 12.2996 14.5338C12.6323 14.8665 13.0273 15.1305 13.4621 15.3106C13.8968 15.4906 14.3628 15.5833 14.8334 15.5833C15.3039 15.5833 15.7699 15.4906 16.2047 15.3106C16.6394 15.1305 17.0344 14.8665 17.3672 14.5338C17.6999 14.2011 17.9639 13.806 18.1439 13.3713C18.324 12.9365 18.4167 12.4706 18.4167 12C18.4167 11.5294 18.324 11.0635 18.1439 10.6287C17.9639 10.194 17.6999 9.79895 17.3672 9.4662C17.26 9.35905 17.1464 9.25904 17.0271 9.16667C16.7759 8.97217 16.4994 8.81152 16.2047 8.68943C15.7699 8.50935 15.3039 8.41667 14.8334 8.41667C14.3628 8.41667 13.8968 8.50935 13.4621 8.68943Z" fill="#1D1D25"/>
<path d="M9.16671 15.5833C8.61417 15.5833 8.08427 15.8028 7.69357 16.1935C7.30287 16.5842 7.08337 17.1141 7.08337 17.6667C7.08337 18.2192 7.30287 18.7491 7.69357 19.1398C8.08427 19.5305 8.61417 19.75 9.16671 19.75C9.71924 19.75 10.2491 19.5305 10.6398 19.1398C11.0305 18.7491 11.25 18.2192 11.25 17.6667V15.5833H9.16671ZM6.63291 15.1329C7.30491 14.4609 8.21635 14.0833 9.16671 14.0833H12C12.4143 14.0833 12.75 14.4191 12.75 14.8333V17.6667C12.75 18.617 12.3725 19.5285 11.7005 20.2005C11.0285 20.8725 10.1171 21.25 9.16671 21.25C8.21635 21.25 7.30491 20.8725 6.63291 20.2005C5.9609 19.5285 5.58337 18.617 5.58337 17.6667C5.58337 16.7163 5.9609 15.8049 6.63291 15.1329Z" fill="#1D1D25"/>
<path d="M9.16671 9.91667C8.61417 9.91667 8.08427 10.1362 7.69357 10.5269C7.30287 10.9176 7.08337 11.4475 7.08337 12C7.08337 12.5525 7.30287 13.0824 7.69357 13.4731C8.08427 13.8638 8.61417 14.0833 9.16671 14.0833L11.25 14.0833V9.91667L9.16671 9.91667ZM6.63291 9.4662C6.7404 9.35871 6.85402 9.25875 6.97294 9.16667C7.59749 8.68308 8.36837 8.41667 9.16671 8.41667L12 8.41667C12.3875 8.41667 12.7064 8.71049 12.7459 9.08748C12.7486 9.1135 12.75 9.13992 12.75 9.16667V14.8333C12.75 15.2475 12.4143 15.5833 12 15.5833L9.16671 15.5833C8.21635 15.5833 7.30491 15.2058 6.63291 14.5338C5.9609 13.8618 5.58337 12.9504 5.58337 12C5.58337 11.0496 5.9609 10.1382 6.63291 9.4662Z" fill="#1D1D25"/>
<path d="M7.69357 4.86019C8.08427 4.46949 8.61417 4.25 9.16671 4.25H11.25V8.41667L12 8.41667C12.3875 8.41667 12.7064 8.71049 12.7459 9.08748L12.75 9.08453C12.9711 8.92657 13.2099 8.79389 13.4621 8.68943C13.8968 8.50935 14.3628 8.41667 14.8334 8.41667H12.75V4.25H14.8334C15.107 4.25 15.3779 4.30389 15.6306 4.40858C15.8834 4.51328 16.1131 4.66674 16.3065 4.86019C16.5 5.05365 16.6534 5.28331 16.7581 5.53608C16.8628 5.78884 16.9167 6.05975 16.9167 6.33333C16.9167 6.60692 16.8628 6.87783 16.7581 7.13059C16.6534 7.38335 16.5 7.61302 16.3065 7.80647C16.1131 7.99993 15.8834 8.15339 15.6306 8.25808C15.3779 8.36278 15.107 8.41667 14.8334 8.41667C15.3039 8.41667 15.7699 8.50935 16.2047 8.68943C16.4994 8.81152 16.7759 8.97217 17.0271 9.16667C17.1464 9.07429 17.26 8.97428 17.3672 8.86713C17.6999 8.53439 17.9639 8.13936 18.1439 7.70462C18.324 7.26987 18.4167 6.8039 18.4167 6.33333C18.4167 5.86276 18.324 5.3968 18.1439 4.96205C17.9639 4.5273 17.6999 4.13228 17.3672 3.79953C17.0344 3.46679 16.6394 3.20284 16.2047 3.02276C15.7699 2.84269 15.3039 2.75 14.8334 2.75H12H9.16671C8.21635 2.75 7.30491 3.12753 6.63291 3.79953C5.9609 4.47154 5.58337 5.38297 5.58337 6.33333C5.58337 7.28369 5.9609 8.19513 6.63291 8.86713C6.7404 8.97463 6.85402 9.07458 6.97294 9.16667C7.59749 8.68308 8.36837 8.41667 9.16671 8.41667C8.61417 8.41667 8.08427 8.19717 7.69357 7.80647C7.30287 7.41577 7.08337 6.88587 7.08337 6.33333C7.08337 5.7808 7.30287 5.2509 7.69357 4.86019Z" fill="#1D1D25"/>
</svg>
