<svg width="24" height="25" viewBox="0 0 24 25" fill="none" xmlns="http://www.w3.org/2000/svg">
<rect width="24" height="24" transform="translate(0 0.751984)" fill="white"/>
<path fill-rule="evenodd" clip-rule="evenodd" d="M12 3.50198C10.7853 3.50198 9.58244 3.74124 8.46018 4.2061C7.33792 4.67095 6.3182 5.3523 5.45926 6.21125C4.60032 7.07019 3.91897 8.0899 3.45411 9.21216C2.98926 10.3344 2.75 11.5373 2.75 12.752C2.75 13.9667 2.98926 15.1695 3.45411 16.2918C3.91897 17.4141 4.60032 18.4338 5.45926 19.2927C6.3182 20.1517 7.33792 20.833 8.46018 21.2979C9.58244 21.7627 10.7853 22.002 12 22.002C13.2147 22.002 14.4176 21.7627 15.5398 21.2979C16.6621 20.833 17.6818 20.1517 18.5407 19.2927C19.3997 18.4338 20.081 17.4141 20.5459 16.2918C21.0107 15.1695 21.25 13.9667 21.25 12.752C21.25 11.5373 21.0107 10.3344 20.5459 9.21216C20.081 8.0899 19.3997 7.07019 18.5407 6.21125C17.6818 5.3523 16.6621 4.67095 15.5398 4.2061C14.4176 3.74124 13.2147 3.50198 12 3.50198ZM10.0414 5.25356C10.6795 5.0869 11.3376 5.00198 12 5.00198C13.0177 5.00198 14.0255 5.20244 14.9658 5.59192C15.9061 5.98139 16.7604 6.55225 17.4801 7.27191C17.6358 7.42762 17.7845 7.58965 17.926 7.75749C16.7362 8.72464 15.0632 9.48324 13.222 10.0577C12.3009 8.12106 11.2836 6.6004 10.0414 5.25356ZM8.51628 5.82911C7.77926 6.19999 7.10507 6.68676 6.51992 7.27191C5.80027 7.99156 5.22941 8.84591 4.83993 9.78619C4.61155 10.3376 4.44815 10.9122 4.35206 11.4984C5.99645 11.4657 8.58894 11.2097 11.1971 10.6043C11.3838 10.561 11.57 10.516 11.7554 10.4693C10.8124 8.53961 9.78171 7.10418 8.51628 5.82911ZM4.25398 13.0002C4.28387 13.9333 4.48215 14.854 4.83993 15.7178C5.22941 16.6581 5.80027 17.5124 6.51992 18.2321C6.60691 18.319 6.69586 18.4039 6.7867 18.4864C7.92846 17.0399 10.197 15.0468 13.2489 14.136C12.9626 13.3102 12.6755 12.5542 12.3829 11.857C12.1 11.9308 11.8174 12.0002 11.5362 12.0655C8.76112 12.7096 5.99982 12.9763 4.25398 13.0002ZM7.9892 19.3834C8.32295 19.5853 8.67221 19.7621 9.0342 19.9121C9.97448 20.3015 10.9823 20.502 12 20.502C13.0177 20.502 14.0255 20.3015 14.9658 19.9121L14.9685 19.9109C14.5396 18.2881 14.1286 16.8497 13.7215 15.5642C11.0287 16.3513 9.00968 18.0988 7.9892 19.3834ZM16.3269 19.1817C16.74 18.9037 17.1263 18.5858 17.4801 18.2321C18.1997 17.5124 18.7706 16.6581 19.1601 15.7178C19.1903 15.6448 19.2194 15.5714 19.2474 15.4976C17.8008 15.1194 16.4415 15.0728 15.1948 15.2469C15.5684 16.4357 15.9421 17.7404 16.3269 19.1817ZM19.6405 14.0499C19.7132 13.6221 19.75 13.188 19.75 12.752C19.75 11.7342 19.5495 10.7265 19.1601 9.78619C19.0478 9.51526 18.9206 9.25146 18.779 8.99597C17.4386 10.0563 15.6755 10.8497 13.8334 11.4379C14.1348 12.1664 14.4284 12.9497 14.7192 13.7972C16.2185 13.5521 17.8698 13.5848 19.6405 14.0499Z" fill="#1D1D25"/>
</svg>
