<svg xmlns="http://www.w3.org/2000/svg" width="40" height="40" viewBox="0 0 40 40" fill="none">
<rect width="40" height="40" rx="20" fill="black"/>
<path d="M23.5208 17.5C23.5208 18.2799 23.3671 19.0522 23.0686 19.7727C22.7702 20.4933 22.3328 21.148 21.7813 21.6995C21.2298 22.2509 20.5751 22.6884 19.8545 22.9869C19.134 23.2853 18.3618 23.4389 17.5819 23.4389V17.5H11.6429C11.6429 19.0751 12.2686 20.5857 13.3824 21.6995C14.4961 22.8132 16.0067 23.4389 17.5819 23.4389V28.4612C19.0213 28.4612 20.4466 28.1777 21.7765 27.6269C23.1064 27.076 24.3148 26.2686 25.3326 25.2507C26.3504 24.2329 27.1579 23.0245 27.7086 21.6947C28.2595 20.3648 28.5431 18.9394 28.5431 17.5H23.5208Z" fill="white"/>
</svg>
