<svg width="67" height="67" viewBox="0 0 67 67" fill="none" xmlns="http://www.w3.org/2000/svg">
<path fill-rule="evenodd" clip-rule="evenodd" d="M33.5 11.1602C21.1621 11.1602 11.1602 21.1621 11.1602 33.5C11.1602 45.838 21.1621 55.8399 33.5 55.8399C45.838 55.8399 55.8399 45.838 55.8399 33.5C55.8399 33.2411 55.7285 33.0051 55.4281 32.7947C55.1008 32.5655 54.6056 32.4247 54.0876 32.4782C53.4787 32.5412 52.8612 32.5734 52.2368 32.5734C42.4006 32.5734 34.4269 24.5996 34.4269 14.7635C34.4269 14.1391 34.4591 13.5216 34.522 12.9128C34.5755 12.3946 34.4347 11.8994 34.2055 11.572C33.9951 11.2716 33.759 11.1602 33.5 11.1602ZM7.66016 33.5C7.66016 19.2291 19.2291 7.66016 33.5 7.66016C35.0728 7.66016 36.3122 8.47894 37.0723 9.56429C37.8136 10.6227 38.1382 11.9687 38.0034 13.2726C37.9528 13.7621 37.9269 14.2595 37.9269 14.7635C37.9269 22.6666 44.3336 29.0734 52.2368 29.0734C52.7408 29.0734 53.2381 29.0474 53.7277 28.9968C55.0315 28.862 56.3775 29.1867 57.4359 29.9279C58.5212 30.6879 59.3399 31.9273 59.3399 33.5C59.3399 47.771 47.771 59.3399 33.5 59.3399C19.2291 59.3399 7.66016 47.771 7.66016 33.5Z" fill="white"/>
</svg>
