<svg width="68" height="67" viewBox="0 0 68 67" fill="none" xmlns="http://www.w3.org/2000/svg">
<path d="M11.9045 17.0572C12.6705 10.6231 18.1265 5.77808 24.606 5.77808H43.6407C50.1202 5.77808 55.5762 10.6231 56.3422 17.0572L59.2339 41.3477C60.1399 48.9578 54.1962 55.651 46.5324 55.651H21.7143C14.0505 55.651 8.10684 48.9578 9.0128 41.3477L11.9045 17.0572ZM24.606 9.27808C19.8995 9.27808 15.9364 12.7974 15.38 17.4709L14.8005 22.339C15.0239 22.5484 15.3112 22.8091 15.6585 23.1076C16.616 23.9303 18.0223 25.0331 19.7992 26.1362C23.3665 28.3506 28.3365 30.5103 34.1234 30.5103C39.9102 30.5103 44.8802 28.3506 48.4475 26.1362C50.2244 25.0331 51.6307 23.9303 52.5882 23.1076C52.9355 22.8091 53.2228 22.5484 53.4462 22.339L52.8667 17.4709C52.3103 12.7974 48.3472 9.27808 43.6407 9.27808H24.606ZM53.945 26.5287C52.9725 27.3079 51.7447 28.2089 50.2933 29.1098C46.3901 31.5327 40.779 34.0103 34.1234 34.0103C27.4677 34.0103 21.8566 31.5327 17.9534 29.1098C16.502 28.2089 15.2742 27.3079 14.3017 26.5287L12.4883 41.7615C11.8302 47.2892 16.1475 52.151 21.7143 52.151H46.5324C52.0992 52.151 56.4165 47.2892 55.7584 41.7615L53.945 26.5287Z" fill="white"/>
<path d="M24.8633 42.0067C24.8633 43.6698 23.5151 45.018 21.8521 45.018C20.189 45.018 18.8408 43.6698 18.8408 42.0067C18.8408 40.3437 20.189 38.9955 21.8521 38.9955C23.5151 38.9955 24.8633 40.3437 24.8633 42.0067Z" fill="white"/>
<path d="M49.7066 42.0067C49.7066 43.6698 48.3584 45.018 46.6953 45.018C45.0323 45.018 43.6841 43.6698 43.6841 42.0067C43.6841 40.3437 45.0323 38.9955 46.6953 38.9955C48.3584 38.9955 49.7066 40.3437 49.7066 42.0067Z" fill="white"/>
<path d="M18.8075 55.1384C19.491 54.455 19.491 53.347 18.8075 52.6636C18.1241 51.9801 17.0161 51.9801 16.3327 52.6636L9.6693 59.3269C8.98588 60.0104 8.98588 61.1184 9.6693 61.8018C10.3527 62.4852 11.4608 62.4852 12.1442 61.8018L18.8075 55.1384Z" fill="white"/>
<path d="M49.4474 55.1384C48.764 54.455 48.764 53.347 49.4474 52.6636C50.1308 51.9801 51.2389 51.9801 51.9223 52.6636L58.5857 59.3269C59.2691 60.0104 59.2691 61.1184 58.5857 61.8018C57.9022 62.4852 56.7942 62.4852 56.1108 61.8018L49.4474 55.1384Z" fill="white"/>
</svg>
