<svg width="68" height="67" viewBox="0 0 68 67" fill="none" xmlns="http://www.w3.org/2000/svg">
<path d="M28.1011 8.0365C29.0676 8.0365 29.8511 8.82 29.8511 9.7865V17.3146C29.8511 18.2811 29.0676 19.0646 28.1011 19.0646C27.1346 19.0646 26.3511 18.2811 26.3511 17.3146V9.7865C26.3511 8.82 27.1346 8.0365 28.1011 8.0365Z" fill="white"/>
<path d="M38.6404 9.54211C39.6069 9.54211 40.3904 10.3256 40.3904 11.2921V18.8202C40.3904 19.7867 39.6069 20.5702 38.6404 20.5702C37.6739 20.5702 36.8904 19.7867 36.8904 18.8202V11.2921C36.8904 10.3256 37.6739 9.54211 38.6404 9.54211Z" fill="white"/>
<path d="M19.3118 10.5393C19.3118 9.57281 18.5283 8.78931 17.5618 8.78931C16.5953 8.78931 15.8118 9.57281 15.8118 10.5393V18.0674C15.8118 19.0339 16.5953 19.8174 17.5618 19.8174C18.5283 19.8174 19.3118 19.0339 19.3118 18.0674V10.5393Z" fill="white"/>
<path d="M7.53101 26.3483C7.53101 25.3818 8.31451 24.5983 9.28101 24.5983H47.6743C48.6408 24.5983 49.4243 25.3818 49.4243 26.3483V45.9213C49.4243 53.9558 42.911 60.4691 34.8765 60.4691H22.0788C14.0442 60.4691 7.53101 53.9558 7.53101 45.9213V26.3483ZM11.031 28.0983V45.9213C11.031 52.0228 15.9772 56.9691 22.0788 56.9691H34.8765C40.978 56.9691 45.9243 52.0228 45.9243 45.9213V28.0983H11.031Z" fill="white"/>
<path d="M45.9241 26.3483C45.9241 25.3818 46.7076 24.5983 47.6741 24.5983C51.2457 24.5983 54.7186 25.7928 57.3197 27.9874C59.9296 30.1895 61.469 33.2464 61.469 36.5112C61.469 39.7759 59.9296 42.8328 57.3197 45.035C54.7186 47.2296 51.2457 48.4241 47.6741 48.4241C47.2099 48.4241 46.7648 48.2397 46.4366 47.9115C46.1084 47.5834 45.9241 47.1382 45.9241 46.6741L45.9241 26.3483ZM49.4241 28.2213L49.4241 44.8011C51.575 44.4963 53.5489 43.6372 55.0626 42.3599C56.9704 40.7502 57.969 38.6372 57.969 36.5112C57.969 34.3852 56.9704 32.2721 55.0626 30.6624C53.5489 29.3852 51.575 28.526 49.4241 28.2213Z" fill="white"/>
</svg>
