<svg width="68" height="67" viewBox="0 0 68 67" fill="none" xmlns="http://www.w3.org/2000/svg">
<path d="M14.237 56.289L14.2397 56.2869L14.244 56.2836L14.2577 56.2732L14.3042 56.2381C14.3436 56.2085 14.3996 56.1669 14.4707 56.1149C14.6128 56.0109 14.816 55.8652 15.0687 55.6916C15.5722 55.3456 16.281 54.8827 17.1007 54.4175C18.6492 53.5388 20.9295 52.4523 23.0251 52.4523C27.1973 52.4523 30.2058 54.2008 32.7504 55.7078L32.8149 55.746C35.3988 57.2763 37.4221 58.4747 40.095 58.4747C42.2256 58.4747 44.0689 57.9154 45.3914 57.3442C46.0493 57.06 46.5672 56.7777 46.9134 56.5714C47.0861 56.4685 47.215 56.3853 47.2961 56.3311C47.3366 56.3041 47.365 56.2844 47.3809 56.2732L47.3919 56.2655L47.3933 56.2645L47.3951 56.2631C48.1736 55.695 49.2655 55.8632 49.8367 56.6403C50.4091 57.4191 50.2419 58.5144 49.4631 59.0868L49.3922 59.1376C49.3549 59.1637 49.3041 59.1988 49.2403 59.2414C49.1128 59.3266 48.9329 59.4424 48.7046 59.5784C48.2488 59.8499 47.596 60.2045 46.7792 60.5573C45.1521 61.2601 42.8296 61.9747 40.095 61.9747C36.4477 61.9747 33.6785 60.3298 31.2812 58.9057L31.2776 58.9036C31.1733 58.8417 31.0698 58.7802 30.9669 58.7192C28.427 57.215 26.1521 55.9523 23.0251 55.9523C21.9217 55.9523 20.341 56.603 18.8282 57.4615C18.1173 57.8649 17.4953 58.2707 17.0509 58.5762C16.8295 58.7283 16.6543 58.854 16.5366 58.9401C16.4778 58.9831 16.4335 59.0161 16.4051 59.0374L16.3746 59.0604L16.3687 59.0649C15.6023 59.6533 14.504 59.5092 13.9153 58.7429C13.3265 57.9764 13.4705 56.8778 14.237 56.289Z" fill="white"/>
<path d="M47.8806 16.5699L43.4766 27.0713C44.2515 28.09 45.5091 29.2569 47.1586 29.9662C48.8136 30.6778 50.9419 30.9664 53.5391 30.0626L47.8806 16.5699ZM54.8947 33.2949C51.3882 34.5711 48.2862 34.2608 45.776 33.1815C44.2564 32.5282 42.9849 31.6076 41.9809 30.6377L41.7595 31.1655C41.3858 32.0568 40.3602 32.4764 39.4689 32.1026C38.5776 31.7288 38.1581 30.7032 38.5319 29.8119L44.8783 14.6789C45.9947 12.0169 49.7665 12.0169 50.8829 14.6789L63.4682 44.6886C64.3679 46.8339 62.7923 49.2033 60.4659 49.2033H49.6306V56.4606C49.6306 57.4271 48.8471 58.2106 47.8806 58.2106C46.9141 58.2106 46.1306 57.4271 46.1306 56.4606V49.0948C45.4637 48.8478 44.9884 48.206 44.9884 47.4533C44.9884 46.4868 45.7719 45.7033 46.7384 45.7033H60.0984L54.8947 33.2949Z" fill="white"/>
<path fill-rule="evenodd" clip-rule="evenodd" d="M23.9605 8.22487L17.6897 22.9279C18.7194 24.329 20.4711 25.9861 22.8149 26.9771C25.1827 27.9782 28.2378 28.3383 31.941 26.937L23.9605 8.22487ZM33.315 30.1586C28.7142 31.9371 24.6816 31.5663 21.4519 30.2008C19.2649 29.2761 17.4857 27.9138 16.1554 26.5254L7.4127 47.0246H40.5082L33.315 30.1586ZM20.9658 6.32475L4.04816 45.9918C3.13221 48.1395 4.708 50.5246 7.0428 50.5246H22.2105V60.2247C22.2105 61.1912 22.994 61.9747 23.9605 61.9747C24.927 61.9747 25.7105 61.1912 25.7105 60.2247V50.5246H40.8781C43.2129 50.5246 44.7887 48.1395 43.8728 45.9918L26.9551 6.32475C25.83 3.68683 22.0909 3.68684 20.9658 6.32475Z" fill="white"/>
</svg>
