<svg width="68" height="67" viewBox="0 0 68 67" fill="none" xmlns="http://www.w3.org/2000/svg">
<g clip-path="url(#clip0)">
<path d="M20.2192 14.2319C22.5046 8.53176 28.9892 6.50652 35.7341 7.12426C39.0356 7.42664 42.1632 8.36058 44.4772 9.63247C46.6625 10.8336 47.7754 12.1298 48.0727 13.1938C48.1033 13.3034 48.1253 13.4105 48.1389 13.5148C48.2658 14.4869 48.1017 15.1236 47.8226 15.6194C47.5197 16.1576 46.9967 16.6797 46.1619 17.2666C45.4641 17.7573 44.6638 18.2178 43.7247 18.7582C43.5196 18.8762 43.3078 18.998 43.0891 19.1248C41.9073 19.8098 40.5893 20.6034 39.2978 21.6077C38.5349 22.201 38.3974 23.3005 38.9907 24.0634C39.584 24.8264 40.6835 24.9639 41.4464 24.3706C42.5423 23.5183 43.6907 22.8216 44.8443 22.1529C45.0344 22.0427 45.227 21.932 45.4208 21.8206C46.3639 21.2786 47.3344 20.7209 48.1751 20.1297C49.2039 19.4062 50.2037 18.5247 50.8726 17.3362C51.5654 16.1055 51.8223 14.6922 51.6095 13.062C51.2415 10.2406 48.8619 8.04868 46.1631 6.56525C43.3677 5.0288 39.7618 3.9785 36.0533 3.63885C28.7782 2.97254 20.1367 5.03196 16.9704 12.9298C14.4423 19.2394 16.3799 26.1817 19.5708 31.0691C20.0991 31.8784 21.1835 32.1061 21.9928 31.5778C22.8021 31.0494 23.0298 29.965 22.5015 29.1557C19.6878 24.846 18.2598 19.1224 20.2192 14.2319Z" fill="white"/>
<path d="M23.4537 54.6355C17.3745 55.5063 12.3783 50.9032 9.54083 44.7531C8.15195 41.7427 7.39697 38.5672 7.34145 35.9272C7.28902 33.4341 7.85511 31.8222 8.62788 31.0327C8.70747 30.9514 8.78925 30.8788 8.87277 30.8149C9.65117 30.219 10.2847 30.0427 10.8536 30.0365C11.4711 30.0298 12.1848 30.2217 13.1105 30.6511C13.8843 31.0101 14.6833 31.4729 15.6208 32.016C15.8256 32.1347 16.0369 32.2571 16.2561 32.3831C17.4402 33.0641 18.7865 33.8088 20.302 34.425C21.1973 34.7891 22.2182 34.3585 22.5823 33.4632C22.9463 32.5678 22.5157 31.5469 21.6204 31.1828C20.3344 30.6599 19.1568 30.0138 18.0009 29.349C17.8104 29.2395 17.6182 29.1281 17.4249 29.0159C16.484 28.4702 15.5157 27.9086 14.5834 27.4761C13.4424 26.9468 12.1791 26.5218 10.8154 26.5367C9.40312 26.5521 8.05072 27.0363 6.74533 28.0357C4.48594 29.7651 3.77747 32.9218 3.84222 36.0008C3.90929 39.1899 4.80265 42.8378 6.36277 46.2193C9.42326 52.8529 15.5275 59.3069 23.9504 58.1C30.6787 57.1347 35.7221 51.9855 38.3593 46.7785C38.796 45.9162 38.451 44.8633 37.5888 44.4266C36.7266 43.9899 35.6736 44.3349 35.2369 45.1971C32.9114 49.7887 28.6687 53.8871 23.4537 54.6355Z" fill="white"/>
<path d="M56.8269 31.6326C60.6206 36.4619 59.1323 43.0903 55.2249 48.6227C53.3122 51.3307 50.9396 53.5723 48.6811 54.9403C46.5482 56.2323 44.8693 56.548 43.7992 56.2735C43.689 56.2452 43.5852 56.2107 43.4881 56.1703C42.5828 55.7942 42.1134 55.3337 41.8236 54.8441C41.5089 54.3126 41.3183 53.5987 41.2274 52.5823C41.1514 51.7327 41.1527 50.8093 41.1543 49.7258C41.1546 49.4891 41.155 49.2449 41.1546 48.9921C41.1522 47.6261 41.124 46.0879 40.9 44.4673C40.7676 43.5099 39.8842 42.8411 38.9268 42.9734C37.9694 43.1058 37.3006 43.9892 37.4329 44.9466C37.6231 46.3218 37.6523 47.6646 37.6546 48.9981C37.6549 49.2178 37.6545 49.4399 37.6541 49.6634C37.6519 50.7512 37.6497 51.8705 37.7413 52.8942C37.8534 54.1469 38.117 55.4535 38.8118 56.6271C39.5312 57.8424 40.6268 58.7715 42.1449 59.4023C44.7724 60.4943 47.8603 59.5295 50.4945 57.934C53.2228 56.2813 55.9353 53.6837 58.0837 50.6418C62.2983 44.6746 64.8355 36.1611 59.5789 29.4701C55.3787 24.126 48.3977 22.3328 42.5697 22.6525C41.6046 22.7054 40.8652 23.5306 40.9181 24.4957C40.9711 25.4607 41.7963 26.2001 42.7613 26.1472C47.9006 25.8653 53.5712 27.4905 56.8269 31.6326Z" fill="white"/>
<path d="M33.747 22.83C27.8534 22.83 23.0757 27.6077 23.0757 33.5013C23.0757 39.3949 27.8534 44.1727 33.747 44.1727C39.6407 44.1727 44.4184 39.3949 44.4184 33.5013C44.4184 27.6077 39.6407 22.83 33.747 22.83ZM19.5757 33.5013C19.5757 25.6747 25.9204 19.33 33.747 19.33C41.5737 19.33 47.9184 25.6747 47.9184 33.5013C47.9184 41.3279 41.5737 47.6727 33.747 47.6727C25.9204 47.6727 19.5757 41.3279 19.5757 33.5013Z" fill="white"/>
</g>
<defs>
<clipPath id="clip0">
<rect width="67" height="67" fill="white" transform="translate(0.24707)"/>
</clipPath>
</defs>
</svg>
