<svg width="68" height="67" viewBox="0 0 68 67" fill="none" xmlns="http://www.w3.org/2000/svg">
<path d="M26.2295 4.67686C26.7307 4.2601 27.422 4.15648 28.0234 4.40795C31.8227 5.99661 38.2134 10.5741 41.7163 18.5093C42.5244 20.3398 43.1769 22.3455 43.6075 24.5284C44.1366 23.5391 44.4185 22.6913 44.4185 22.1103C44.4185 21.4593 44.7799 20.8621 45.3565 20.5601C45.9332 20.258 46.6299 20.301 47.165 20.6717C53.0748 24.7655 56.9522 31.5764 56.9522 39.2915C56.9522 51.8305 46.7201 61.9747 34.1236 61.9747C21.5271 61.9747 11.2949 51.8305 11.2949 39.2915C11.2949 32.6959 13.7281 27.7144 18.5049 22.7517L18.5859 22.6675C23.2071 17.8668 27.2152 13.7029 25.6377 6.39159C25.5002 5.7544 25.7282 5.09361 26.2295 4.67686ZM29.4843 9.17737C29.6281 16.258 25.1998 20.8506 21.3794 24.8127C21.2612 24.9353 21.1435 25.0574 21.0265 25.1789C16.7389 29.6334 14.7949 33.7829 14.7949 39.2915C14.7949 49.8747 23.4372 58.4747 34.1236 58.4747C44.8099 58.4747 53.4522 49.8747 53.4522 39.2915C53.4522 33.7012 51.0438 28.6662 47.1914 25.1565C46.9117 25.8007 46.5812 26.4087 46.2559 26.9485C45.4021 28.3655 44.3865 29.6304 43.6913 30.3846C43.2122 30.9044 42.4675 31.0849 41.8036 30.8422C41.1398 30.5996 40.6871 29.9813 40.6561 29.2752C40.4993 25.6935 39.6899 22.5856 38.5144 19.9227C36.2198 14.7247 32.5105 11.1852 29.4843 9.17737Z" fill="white"/>
</svg>
