<svg width="68" height="67" viewBox="0 0 68 67" fill="none" xmlns="http://www.w3.org/2000/svg">
<path d="M35.7374 8.92553C36.4208 9.60894 36.4208 10.717 35.7374 11.4004L9.76551 37.3723C9.0821 38.0557 7.97406 38.0557 7.29064 37.3723C6.60722 36.6889 6.60722 35.5809 7.29064 34.8974L33.2625 8.92553C33.946 8.24211 35.054 8.24211 35.7374 8.92553ZM57.1925 11.184C57.8759 11.8674 57.8759 12.9754 57.1925 13.6588L13.1532 57.6982C12.4697 58.3816 11.3617 58.3816 10.6783 57.6982C9.99486 57.0147 9.99486 55.9067 10.6783 55.2233L54.7176 11.184C55.401 10.5005 56.5091 10.5005 57.1925 11.184ZM60.2037 33.3918C60.8871 34.0752 60.8871 35.1833 60.2037 35.8667L43.2655 52.8049C42.5821 53.4883 41.4741 53.4883 40.7906 52.8049C40.1072 52.1215 40.1072 51.0134 40.7906 50.33L57.7288 33.3918C58.4123 32.7084 59.5203 32.7084 60.2037 33.3918Z" fill="white"/>
</svg>
