<svg width="92" height="38" viewBox="0 0 92 38" fill="none" xmlns="http://www.w3.org/2000/svg">
<path d="M17.7584 6.58575C18.0873 5.34682 17.9726 3.04954 14.8815 3.7719C11.0177 4.67485 6.69198 7.76168 4.94907 9.65158C3.60515 11.1088 -1.0356 15.9512 5.91502 16.5602C12.8656 17.1692 14.2516 18.5551 12.5297 20.592C10.8078 22.6289 8.1829 21.8099 11.0387 19.689C13.7682 17.662 15.1933 16.6132 16.8907 16.1027C16.9891 16.0731 17.0769 16.1688 17.0405 16.2649C16.4489 17.825 15.4654 20.7262 16.1205 20.886C16.8092 21.0539 19.3053 18.1701 20.4672 16.7072C20.0822 18.0021 19.4719 20.3823 19.8163 20.592C20.2992 20.886 22.9661 18.4921 23.701 17.1272C25.4903 13.8043 21.7481 18.3031 23.1341 19.689C23.827 20.382 25.6844 17.3482 27.5648 16.9592C28.7326 16.7176 25.0551 32.1891 20.9188 34.9825C20.6169 35.1864 20.215 35.0805 20.0568 34.7523C18.7925 32.1292 21.7929 27.4769 27.5648 21.7049C30.6937 18.5761 30.8196 18.7231 31.3446 17.8201M31.3446 17.8201C32.0058 16.6829 34.0346 15.0274 33.7747 17.0457C33.7463 17.2661 33.6654 17.4804 33.5477 17.6689C32.5806 19.2174 31.5063 19.2706 31.0965 19.0591M31.3446 17.8201C30.8546 19.549 30.7021 22.4189 33.8435 20.067C36.7623 17.4002 36.965 16.4832 38.0433 16.5602C39.8072 16.6862 39.0302 19.668 43.02 17.4002M44.3009 16.4552L44.2589 16.4972" stroke="#1D1D25" stroke-width="1.21372" stroke-linecap="round" stroke-linejoin="round"/>
<path d="M53.3765 15.0989V21.4402H55.4331C57.3359 21.4402 58.439 20.2756 58.439 18.2673C58.439 16.2634 57.3315 15.0989 55.4331 15.0989H53.3765ZM53.9785 15.6438H55.3979C56.958 15.6438 57.8281 16.5842 57.8281 18.2717C57.8281 19.9548 56.958 20.8953 55.3979 20.8953H53.9785V15.6438ZM64.9982 20.8953H61.7683V18.4607H64.8356V17.9246H61.7683V15.6438H64.9982V15.0989H61.1706V21.4402H64.9982V20.8953ZM67.4135 19.7483C67.4794 20.8206 68.4066 21.5413 69.7602 21.5413C71.1356 21.5413 72.0409 20.8162 72.0409 19.6912C72.0409 18.8123 71.518 18.3157 70.2128 18.0212L69.5229 17.863C68.5824 17.6521 68.1913 17.2874 68.1913 16.7117C68.1913 15.991 68.8725 15.5427 69.7294 15.5427C70.6303 15.5427 71.2587 16.0261 71.3202 16.7512H71.9223C71.8871 15.7317 70.9774 14.9978 69.7426 14.9978C68.4989 14.9978 67.5761 15.7141 67.5761 16.738C67.5761 17.6125 68.1034 18.1531 69.3646 18.4343L70.0546 18.5881C71.0302 18.8123 71.4257 19.1726 71.4257 19.7703C71.4257 20.491 70.7445 20.9963 69.7909 20.9963C68.7978 20.9963 68.0902 20.5085 68.0155 19.7483H67.4135ZM75.3175 21.4402V15.0989H74.7198V21.4402H75.3175ZM83.5291 18.865V18.2542H80.9627V18.7815H82.9314V19.0056C82.9314 20.2009 82.1229 20.9832 80.8968 20.9832C79.5389 20.9832 78.6644 19.9065 78.6644 18.2322C78.6644 16.5798 79.5213 15.5559 80.8968 15.5559C81.8636 15.5559 82.6063 16.1008 82.8655 17.0061H83.4896C83.2522 15.7932 82.2283 14.9978 80.8968 14.9978C79.1653 14.9978 78.0491 16.2678 78.0491 18.2322C78.0491 20.2317 79.1785 21.5413 80.8968 21.5413C82.5447 21.5413 83.5291 20.5393 83.5291 18.865ZM86.8936 21.4402V16.1404H86.9243L90.6553 21.4402H91.2354V15.0989H90.6421V20.3943H90.6113L86.8936 15.0989H86.3003V21.4402H86.8936Z" fill="#1D1D25"/>
<path d="M54.7262 27.7965V26.8589L55.7377 24.8359H54.8288L54.3097 26.0362H54.2933L53.7742 24.8359H52.8448L53.8562 26.8589V27.7965H54.7262ZM57.4836 24.8359H56.6137V26.742C56.6137 27.417 57.1369 27.8478 57.9186 27.8478C58.7003 27.8478 59.2235 27.417 59.2235 26.742V24.8359H58.3535V26.6455C58.3535 26.9574 58.1996 27.1277 57.9186 27.1277C57.6375 27.1277 57.4836 26.9574 57.4836 26.6455V24.8359ZM63.3903 27.7965V26.8589L64.4018 24.8359H63.4929L62.9738 26.0362H62.9574L62.4383 24.8359H61.5089L62.5204 26.8589V27.7965H63.3903ZM66.1477 24.8359H65.2778V26.742C65.2778 27.417 65.801 27.8478 66.5827 27.8478C67.3644 27.8478 67.8876 27.417 67.8876 26.742V24.8359H67.0177V26.6455C67.0177 26.9574 66.8638 27.1277 66.5827 27.1277C66.3016 27.1277 66.1477 26.9574 66.1477 26.6455V24.8359ZM69.2129 27.8253C69.4489 27.8253 69.6397 27.6345 69.6397 27.3985C69.6397 27.1626 69.4489 26.9718 69.2129 26.9718C68.977 26.9718 68.7862 27.1626 68.7862 27.3985C68.7862 27.6345 68.977 27.8253 69.2129 27.8253Z" fill="#1D1D25"/>
<path d="M49.1125 14.8006L49.1125 27.7793" stroke="#1D1D25" stroke-width="0.3"/>
</svg>
