<svg width="20" height="20" viewBox="0 0 20 20" fill="none" xmlns="http://www.w3.org/2000/svg">
<path d="M5.31834 4.97333C6.64646 3.90922 8.29817 3.33061 10 3.33333C11.7708 3.33333 13.3983 3.94666 14.6817 4.97333L15.8925 3.76249L17.0708 4.94083L15.86 6.15166C16.7414 7.25512 17.2934 8.58502 17.4523 9.98832C17.6113 11.3916 17.3708 12.8113 16.7586 14.0839C16.1463 15.3566 15.1872 16.4305 13.9915 17.1821C12.7959 17.9338 11.4123 18.3325 10 18.3325C8.58773 18.3325 7.20415 17.9338 6.0085 17.1821C4.81284 16.4305 3.85369 15.3566 3.24144 14.0839C2.62918 12.8113 2.3887 11.3916 2.54767 9.98832C2.70663 8.58502 3.25858 7.25512 4.14 6.15166L2.92917 4.94166L4.1075 3.76333L5.31834 4.97416V4.97333ZM10.8333 9.99999V6.24583L6.66667 11.6667H9.16667V15.4167L13.3333 9.99999H10.8333ZM6.66667 0.833328H13.3333V2.49999H6.66667V0.833328Z" fill="#00BF86"/>
</svg>
