<svg width="20" height="20" viewBox="0 0 20 20" fill="none" xmlns="http://www.w3.org/2000/svg">
<path d="M9.99997 14.1667C13.0516 14.1667 15.7208 15.4792 17.1725 17.4375L15.6375 18.1633C14.4558 16.7633 12.3725 15.8333 9.99997 15.8333C7.62747 15.8333 5.54414 16.7633 4.36247 18.1633L2.82831 17.4367C4.27997 15.4783 6.94831 14.1667 9.99997 14.1667ZM9.99997 1.66666C11.105 1.66666 12.1649 2.10564 12.9463 2.88704C13.7277 3.66845 14.1666 4.72825 14.1666 5.83332V8.33332C14.1666 9.43839 13.7277 10.4982 12.9463 11.2796C12.1649 12.061 11.105 12.5 9.99997 12.5C8.89491 12.5 7.8351 12.061 7.0537 11.2796C6.27229 10.4982 5.83331 9.43839 5.83331 8.33332V5.83332C5.83331 4.72825 6.27229 3.66845 7.0537 2.88704C7.8351 2.10564 8.89491 1.66666 9.99997 1.66666Z" fill="#0153FF"/>
</svg>
