<svg width="22" height="23" viewBox="0 0 22 23" fill="none" xmlns="http://www.w3.org/2000/svg">
<path d="M7.57159 8.07171C5.35142 8.56946 3.66659 10.774 3.66659 13.2738C3.66657 14.6214 4.16941 15.9205 5.07671 16.917C5.98402 17.9134 7.23049 18.5354 8.57221 18.6613C9.91394 18.7872 11.2544 18.4079 12.3312 17.5976C13.408 16.7873 14.1437 15.6044 14.3943 14.2803C14.4483 13.9925 14.5704 13.7218 14.7505 13.4908C14.9305 13.2599 15.1633 13.0755 15.4293 12.953C15.8711 12.7495 16.2634 12.5194 16.6063 12.2719C15.8152 11.7191 15.5191 10.565 16.1754 9.67404C16.7224 8.93413 17.1525 8.11453 17.4505 7.24396C16.3721 7.74397 15.2455 8.13252 14.0882 8.40354C12.9323 8.68129 11.8955 7.81871 11.8277 6.74071C10.746 7.26504 9.38017 7.66654 7.5725 8.07171H7.57159ZM17.6513 10.7612C18.7201 10.7612 19.4085 10.3725 20.1666 10.2231C19.8687 11.5505 18.7916 13.4223 16.1974 14.6185C15.8639 16.393 14.8798 17.9789 13.438 19.0656C11.9962 20.1523 10.2005 20.6615 8.40287 20.4933C6.60522 20.3251 4.93516 19.4917 3.71992 18.1564C2.50468 16.8212 1.83184 15.0802 1.83325 13.2747C1.83325 9.93254 4.09467 6.97171 7.17192 6.28237C10.7662 5.47754 12.4006 4.84687 13.6583 2.33337C14.2898 3.55529 14.2898 4.98437 13.6583 6.62062C16.2396 6.00646 18.3094 4.92296 19.8678 3.36829C19.8678 7.77012 18.1976 9.95546 17.6503 10.7612H17.6513ZM12.2979 14.3655C12.8333 14.4985 12.8333 15.1282 12.8333 15.3005V16.2374C12.8333 16.7516 12.5198 16.946 12.0596 16.946H7.09675C6.66134 16.8662 6.42392 16.6288 6.42392 16.2328V15.362C6.42392 14.9265 6.62192 14.6103 6.81992 14.372L9.70925 11.2837H6.89875C6.62192 11.2837 6.42392 11.0857 6.42392 10.73C6.38359 10.0563 6.50275 8.98837 7.017 8.75004C7.09675 8.75004 7.09675 8.86921 7.09675 8.90862C7.017 9.06721 7.09675 9.18546 7.29475 9.18546H10.8578C11.6489 9.18546 12.1238 9.18546 12.4015 9.10662C12.5207 9.06721 12.5995 9.10662 12.5601 9.22579C12.4803 9.50262 12.5198 9.81887 12.5198 10.0966C12.5198 11.0069 12.5198 11.3635 11.8075 12.0757L9.35267 14.768L11.9652 14.7661C12.2548 14.7661 12.2988 14.6323 12.2988 14.3655H12.2979Z" fill="#333342"/>
</svg>
